/* XPM */ 
static const char * atom_xpm[] = {
"52 52 47 1",
" 	c None",
"!	c black",
"#	c #EFEFEF",
"$	c #C6C7C6",
"%	c #B5B6B5",
"&	c #B5B2B5",
"'	c #BDBABD",
"(	c #C6C3C6",
")	c #ADAEAD",
"*	c #ADAAAD",
"+	c #A5A6A5",
",	c #9C9E9C",
"-	c #F7F3F7",
".	c white",
"0	c #DEDFDE",
"1	c #9C9A9C",
"2	c #A5A2A5",
"3	c #EFEBEF",
"4	c #FFFBFF",
"5	c #CECBCE",
"6	c #949294",
"7	c #8C8A8C",
"8	c #E7E7E7",
"9	c #4A4D4A",
":	c #5A595A",
";	c #636563",
"<	c #737173",
"=	c #7B797B",
">	c #848684",
"?	c #848284",
"@	c #DEDBDE",
"A	c #7B7D7B",
"B	c #6B6D6B",
"C	c #949694",
"D	c #737573",
"E	c #BDBEBD",
"F	c #F7F7F7",
"G	c #D6D3D6",
"H	c #8C8E8C",
"I	c #525552",
"J	c #5A5D5A",
"K	c #E7E3E7",
"L	c #636163",
"M	c #6B696B",
"N	c #D6D7D6",
"O	c #424542",
"P	c #CECFCE",
"        #$%%&%&%%%%%%%%&%%%%&%%%%%%%%%%%'%(         ",
"      #&%)&%&%&&&&&&&&&&&&&&')%&&&&&&&&&)%&&&       ",
"     '&&%&&&&&&&&&&&&&&&&%%)%)%&&&&&&&&&%))'))'     ",
"    %%&&&&&%%%&&&&&&&&&&&)%&&%&&&&&&&&&&&&%)&&%&    ",
"   %&*%&%&&&))&&&&&&&&&&)&))&&&&&&&&&&&&&&&&%&)&&   ",
"  '&&%&&&&&&%&&&&&&&&&&)*+,**)%&&&&&&&&&&&)&&&&&&'  ",
"  &&%)%&&&&&&&&&&&&&&&&*-..01*)&&&&&&&&&%&%&&%)%&&  ",
" &&&%&&&&&&&&&&&&&%)%&23.4..56*&&&&&&%&&&&&&&&&&&&& ",
" %&%&&&&&&&&&&&&&%)%*2+44....72)&&&&&&&&&&&&&&&&%&% ",
"$&)&&%&&&&&&&&&&&)%+*-..89:-.-6+&&&&&&&&&&&&&&&&&&&$",
"%&&&&&&&&&&&&&&&&)*$....%;<=..>,)&&&&&&&&&&&&%%%&&&%",
"%&&&&&&&&&&&&&&&&),......?7?8.,6*&&&&&&&&&&&&&&&&%&%",
"%)&&&%&&&&&&&&&&%*1.4.4..$66'.@7+&&&&&&&&&&&&&&&&&&%",
"%&&&&&&&&&))&&&%&+6....4.271>..A,&&&&&)&&&))&&&&&&&%",
"&&&&&&)++2222+*))*6-....4BC,6..D1))&)**++222+*)&&&&%",
"&%&&&*EF....-8(C,1CA#..-BA,*CG.&H++2253F....F*+)&&&%",
"&&%&)+4.4........0H<..IJAC+&1+.#A1K..4..44...#C*&&&%",
"%&&&),-..:LM<AHK4.....:DH+&+,?......5C=B<MB.4N>+)&&%",
"%&&&),)..LD>H>?D=?#....$H12,@....0<BD=A>7?D..?H+)&&&",
"&%&%)+HK.#=1,+,16?=<.....K3.....IB=76122264.(DC*&&&&",
"&&&&&)1A3.-6+*&**26,.-O)....KO..B?1+**)),F.NB72)&&&%",
"%&&&&&+1=-.@6**&&)2+4--.4....84.A6+)%))2-.#M>1)&&&&%",
"&&%%)%)+1?@..6,*)),&...F;J:=....HH,&)+2..EB7,*&&&&&%",
"%&&&&&&&+6?@..)122$..F>L=?>?B,...)C2,(..P<>1*&&&&&&%",
"%&&&&&&&)*1?H..#2..4.0M>122,6A#...FH4..A<72))&&&&&&%",
"%&&&&&&&&&+17?F...#*.KDC+&&&+63.C#...4MD72*&%&&&&&&%",
"%&&&&&&&&+,C76....#).@72)&&&)1-.+F...-A>2*&&)&&&&&&%",
"%&&&&&&*+...F..PJ44..8A2)%)%*C3.4.FI3..C1*%&%%)&&&&%",
"%&&&&&)+4..4..?MB<2...%7+*)*1G...A;M<,..K6+&%)%&&&&%",
"%&&&&&*2......:A6H=,....,C2*..4.=;>6H?=4.KH+)&&&&&&%",
"%&&&&&*)......7H++1,.-K......5..D?1**,H=K.FC2)&&&&&%",
"&&&&&)+>......BC*%22.FO5....&O..D6+)*+1>D-.86+)&&&&%",
"%%&&&&,#.....+=,*+16.....$P.....;H,*(3-(ABF.06*)&&&%",
"%%&&&*E..M@@MM?1,E.....6J;ML&....F*8....F<<..2,)&&&%",
"&&&&&2-..:IJB7'F......IM=H67=M.......4.4.AA..N6+&&&&",
"&%&))+....4.4.4..*BJ..M=,+++6+.G:M%..........KH2)&&&",
"&&&%)1,3F..-8$CBB=?DG.)7+&&)1K.,M=D....4...F8?H+)&&&",
"%%&)))1?<BBBDAA>C1116.4?+)&),..;76H8....FIJBD>,*&&&%",
"&&&%&)+16HH6H1,2**&27..=,)&)6..<6+,?N44#:D?HC,*&&&&%",
"%&)%&)&))***)))&&&%*HF.2C*&2$.G=,)*,7DBD>C+*))&&&%%&",
"%)%&%&&&&&&&&&&&&&&)1&.KH2)2#.7?2&)*,C612*&&&&&&%)&&",
"%%&&%&&&&&&&&&&&&%&)+7..?1+,.4<H+&&&)))))&&&&&&&&%%'",
"(&)&&&%&&&&&&&&&&&&&+6F.-?6..3A1*&&&&&&&&&&&&&&&&)&E",
" )'%&&&&&&&&&&&&&%&&&,7......M72)&&&&&&&&&&&&&&)%%) ",
" %)&&&&&&&&&&&&&%&&%)+HG.4..2=1)&&&&&&&&&&&&&&&%)&% ",
"  &%%&&&&&&&&&&&&&&&&&,>0..(BH2&&&&&&&&&&&&&&&&&&&  ",
"  ')&&&&&&&&&&&&%&&%&&*1?BM<7,)&&&&&&&&&&&&&&&&&&'  ",
"   &%)&&&&&&&&&&&&&&&&&+,6H62*&&&&&&&&&&)%&&&&&&&   ",
"    &&&&&&&&&&&&&&&&&&&&)***)&&&&&&&&&&&%&&&%&&%    ",
"     E&&%)&%&&&&&&&&&&&&&&&&&&&&&&&&&&&&%)&'&&'     ",
"       )'&&%)&&&&&&&&&&&&&&&&&&&&&&&&&&%)%&&%       ",
"         $&%&%&&&&&%%%%%%%%%%%%%%%%%%%%&'%E         "};