/* XPM */ 
static const char * cocodialog_xpm[] = {
"52 52 42 1",
" 	c None",
"!	c black",
"#	c #C6C7C6",
"$	c #B5B6B5",
"%	c #B5B2B5",
"&	c #BDBABD",
"'	c #C6C3C6",
"(	c #ADAEAD",
")	c #ADAAAD",
"*	c #A5A6A5",
"+	c #F7F3F7",
",	c #A5A2A5",
"-	c #FFFBFF",
".	c white",
"0	c #D6D3D6",
"1	c #9C9A9C",
"2	c #9C9E9C",
"3	c #F7F7F7",
"4	c #949694",
"5	c #E7E3E7",
"6	c #DEDBDE",
"7	c #949294",
"8	c #DEDFDE",
"9	c #EFEBEF",
":	c #D6D7D6",
";	c #7B797B",
"<	c #737173",
"=	c #7B7D7B",
">	c #CECBCE",
"?	c #737573",
"@	c #636163",
"A	c #5A5D5A",
"B	c #636563",
"C	c #6B6D6B",
"D	c #848684",
"E	c #848284",
"F	c #8C8A8C",
"G	c #8C8E8C",
"H	c #6B696B",
"I	c #CECFCE",
"J	c #5A595A",
"K	c #BDBEBD",
"         #$$%$%$$$$$$$$$$$$$$$$$$$$$$$$$&$'         ",
"       %$(%$%$%%%%%%%%%%%%%%%%%%%%%%%%%%($%%%       ",
"     &%%$%%%%%%%%%%%%%%%%%%%%%%%%%%%%%%%$((&((&     ",
"    $$%%%%%$$$%%%%%%%%%%%%%%%%%%%%%%%%%%%%$(%%$%    ",
"   $%)$%$%%%((%%%%%%%%%%%%%%%%%%%%%%%%%%%%%%$%(%%   ",
"  &%%$%%%%%%$%%%%%%%%%%%%%%%%%%%%%%%%%%%%%(%%%%%%&  ",
"  %%$($%%%%%%%%%%%%%%%%%%%%%%%%%%%%%%%%%$%$%%$($%%  ",
" %%%%%%%%%%%%%%%%%%%$%%%%%%%%%%%%%%%%%%%%%%%%%%%%%% ",
" $%$%%%%%%%%%%%%%$$%(%$%%%%%%%%%%%%%%%%%%%%%%%%%%$& ",
"#%(%%%%%%%%%%%%%%%%($%(%%%%%%%%%%%%%%%%%%%%%%%%%%%(#",
"$%%%%%%%%%%%%%%$$%%$($%%%%%%%%%%%%%%%%%%%%%%%%%%%%%$",
"$%$%%%%%%%%%%%%(%%%%$%%%%%%%%%%%%%%%%%%%%%%%%%%%%$%$",
"$(%%%%%%%%%%%%%$((%)(%%%%%%%%%%%%%%%%%%%%%%%%%%%%%($",
"$%%%%%%%%%%%%%%%*+(,)(%%%%%%%%%%%%%%%%%%%%%%%%%%%%%$",
"%%%%%%%%%%%%%%%(*-.01,)%%%%%%%%%%%%%%%%%%%%%%%%%%%%%",
"%%%%%%%%%%%%%%%(2-..-02,*%(%$%%%%%%%%%%%%%%%%%%%%%%$",
"%%%%%%%%%%%%%%%)1-....-&1*(%(%%$%%%$%%%%%%%%%%%%%%%$",
"%%%%%%%%%%%%%%%(1-..-...3&2*(%%(%$($%%$%%%%%%%%%%%%$",
"%%%%%%%%%%%%%%%)4-........52,)($($$(%$(%%%%%%%%%%%%$",
"%%%%%%%%%%%%%%%)4-.......-..6,**%%%%%$%%%%%%%%%%%%%$",
"%%%%%%%%%%%%%%%(7-............#4*((%$%%%%%%%%%%%%%%$",
"%%%%%%%%%%%%%%%(4.........-.....(1*%(%%%%%%%%%%%%%%$",
"%%%%%%%%%%%%%%%)4..........-......%1*%%%%%%%%%%%%%%$",
"%%%%%%%%%%%%%%%)4..................8,**(%%%%%%%%%%%$",
"%%%%%%%%%%%%%%%)4.................-.-62,)%$%%%%%%%%$",
"%%%%%%%%%%%%%%%)4........-........-....&%)(%$%%%%%%$",
"%%%%%%%%%%%%%%%)4...............9:(7;<=4,($%(%$%%%%$",
"%%%%%%%%%%%%%%%)4.........:>1?@ABCC?=D7,)(%%%%%%%%%$",
"%%%%%%%%%%%%%%%)4......-.%AC;=EFG71,,,))(%%%%%%%%%%$",
"%%%%%%%%%%%%%%%)4.......6@EG2,,*)))(%(%%%$$%%%%%%%%$",
"%%%%%%%%%%%%%%%)4......+@=2)((%%%$%%$%%%%%%%%%$%%%%$",
"%%%%%%%%%%%%%%%)4....-.H=4)%%%%%%%%%%%%%%%%%%%%%%%%$",
"%%%%%%%%%%%%%%%*4.....E<7)%%%%%%%%%%%%%%%%%%%%%%%%%$",
"%%%%%%%%%%%%%%%)7..-.ICF,%%%%$%%%%%%%%%%%%%%%%%%%%%$",
"%%%%%%%%%%%%%%%*4...+@F,)%%%$%%%%%%%%%%%%%%%%%%%%%%$",
"%%%%%%%%%%%%%%%)7..-J=1)(%%%%%$%%%%%%%%%%%%%%%%%%%%$",
"%%%%%%%%%%%%%%%*4..=;7)(%%%%%%%%%%%%%%%%%%%%%%%%%%%$",
"%%%%%%%%%%%%%%%)4-2?7*%%%%%%$%%%%%%%%%%%%%%%%%%%%%%$",
"%%%%%%%%%%%%%%%)10;D*(%%%%%%%%$%%%%%%%%%%%%%%%%%%%%$",
"$%%$%($%%%%%%%%)244,(%%%%%%%%%%%%%%%%%%%%%%%%%%%%%$%",
"$($%%%%%%%%%%%%(),*)%%%%%%%%%%%%%%%%%%%%%%%%%%%%$(%%",
"$$%%$%%%%%%%%%%%%%%%%%%%%%%%%%%%%%%%%%%%%%%%%%%%%$$&",
"'%(%%%$%%%%%%%%%%%%%%%%%%%%%%%%%%%%%%%%%%%%%%%%%%%%K",
" (&%%%(%%%%%%%%%%%%%%%%%%%%%%%%%%%%%%%%%%%%%%%%%$$( ",
" &(%%$%%%%%%%%%%%%%%%%%%%%%%%%%%%%%%%%%%%%%%%%%$(%$ ",
"  (%$%%%%%%%%%%%%%%%%%%%%%%%%%%%%%%%%%%%%%%%%%%%%%  ",
"  K(%%%%%%%%%%%%%%%%%%%%%%%%%%%%%%%%%%%%%%%%%%%%%&  ",
"   %$(%%%%%%%%%%%%%%%%%%%%%%%%%%%%%%%%%%($%%%%%%%   ",
"    %%%%%%%%%%%%%%%%%%%%%%%%%%%%%%%%%%%%$%%%$%%$    ",
"     K%%$(%$%%%%%%%%%%%%%%%%%%%%%%%%%%%%$(%&%%&     ",
"       (&%%$(%%%%%%%%%%%%%%%%%%%%%%%%%%$($%%$       ",
"         #%$%$%$$$$$$$$$$$$$$$$$$$$$$$$%&$K         "};