/* XPM */ 
static const char * computer_xpm[] = {
"52 52 41 1",
" 	c None",
"!	c black",
"#	c #C6C7C6",
"$	c #B5B6B5",
"%	c #B5B2B5",
"&	c #BDBABD",
"'	c #C6C3C6",
"(	c #ADAEAD",
")	c #ADAAAD",
"*	c #A5A6A5",
"+	c #A5A2A5",
",	c #FFFBFF",
"-	c #F7F7F7",
".	c #F7F3F7",
"0	c white",
"1	c #E7E3E7",
"2	c #DEDBDE",
"3	c #949694",
"4	c #949294",
"5	c #7B7D7B",
"6	c #6B6D6B",
"7	c #737173",
"8	c #6B696B",
"9	c #9C9A9C",
":	c #8C8E8C",
";	c #848684",
"<	c #848284",
"=	c #636163",
">	c #8C8A8C",
"?	c #D6D3D6",
"@	c #9C9E9C",
"A	c #636563",
"B	c #5A595A",
"C	c #5A5D5A",
"D	c #BDBEBD",
"E	c #7B797B",
"F	c #737573",
"G	c #525552",
"H	c #CECBCE",
"I	c #EFEBEF",
"J	c #EFEFEF",
"         #$$%$%$$$$$$$$$$$$$$$$$$$$$$$$$&$'         ",
"       %$(%$%$%%%%%%%%%%%%%%%%%%%%%%%%%%($%%%       ",
"     &%%$%%%%%%%%%%%%%%%%%%%%%%%%%%%%%%%$((&((&     ",
"    $$%%%%%$$$%%%%%%%%%%%%%%%%%%%%%%%%%%%%$(%%$%    ",
"   $%)$%$%%%((%%%%%%%%%%%%%%%%%%%%%%%%%%%%%%$%(%%   ",
"  &%%$%%%%%%$%%%%%%%%%%%%%%%%%%%%%%%%%%%%%(%%%%%%&  ",
"  %%$($%%%%%%%%%%%%%%%%%%%%%%%%%%%%%%%%%$%$%%$($%%  ",
" %%%%%%($%%%%%%%%%%%%%%%%%%%%%%%%%%%%%%%%%$(%%%%%%% ",
" $%$%%%$%%%%()()))))**)))))))))))+)**)*(($($$(%%%$& ",
"#%(%%%%%%($*$,-,,,,,,,,,,,,,,,,.,0,,0-,(+)$%%%$%%%(#",
"$%%%%%%$%%+10000000000000000000000,0000023((%$%%%%%$",
"$%$%%%%%%))0000000000000000000000000000003+(%%%%%$%$",
"$(%%%%%%$))0,000000000000000000000000000034)$%%%%%($",
"$%%%%%%%%+*00000&5666666666666678679,000,4:*%%(%%%%$",
"%%%%%%%$(**000055;:::4:::::::::::::<=,000>>)%%$%%%%%",
"%%%%%%%%%+*000?;4933333333333333333345000>>)%%%%%%%$",
"%%%%%%%($+*00,3@@@@@@@@@@@@@@@9@@@@@9A000>>)%%%%%%%$",
"%%%%%%%%$@*000>))**))))****)))))**)*(B000>>)%%%%%%%$",
"%%%%%%%%%+)0,0:)%%%(%%%$%%((%%(%(%%((C000>>)%%%%%%%$",
"%%%%%%%%%+*000>&&&&&D&$()@4><EF776867G000>>)%%%%%%%$",
"%%%%%%%%%++000:H'&+<8=A8AAAAAAA=AAAA=C000>>)%%%%%%%$",
"%%%%%%%%(+)000>78=AAAAAAAAAAAAA8AA8AAC000>>)%%%%%%%$",
"%%%%%%%%%+*,00>AAAAAAAAAAAAAAAAAAA8=AB000>>)%%%%%%%$",
"%%%%%%%%%+*000>AAAAAAAAAAAAAAAA8A8AAAB000>>)%%%%%%%$",
"%%%%%%%%%+*000;AAA88AAAAAAAAAAAAAA=A8B000>>)%%%%%%%$",
"%%%%%%%%%+*000>AAAAA8AAAAAAAAAA=8A8===000>>)%%%%%%%$",
"%%%%%%%%%+*000>AAAA=AAAAAAAAAAAAA=AA8B000>>)%%%%%%%$",
"%%%%%%%%%++00,4AAA88AAAAAAAAAAA8A8=8=B000>>)%%%%%%%$",
"%%%%%%%%%+*000HAAAA=AAAAAAAAAAA=AAA8AF000>>)%%%%%%%$",
"%%%%%%%%(+)000,8AAA8AA8AAAAAAAA8A8A=AI000>>)%%%%%%%$",
"%%%%%%%%%+*00000&E877677777777777769.0000>>)%%%%%%%$",
"%%%%%%%%%+*000000000000000000000000000000>>)%%%%%%%$",
"%%%%%%%%%+*00000000000000000000,00000,000>>)%%%%%%%$",
"%%%%%%%%%+*000000000000000000000000000000>>)%%%%%%%$",
"%%%%%%%%%+*000000000000GBBBBBBBBBBBBCJ000>>)%%%%%%%$",
"%%%%%%%%%+*000000000000--------,,-,--0000>>)%%%%%%%$",
"%%%%%%%%%+*000000000000000000000,00000000>>)%%%%%%%$",
"%%%%%%%%%+*000000000000000000000000000000>>)%%%%%%%$",
"%%%%%%%%%+*000000000000000000000000000000>>)%%%%%%%$",
"$%%$%($%%+*000000000000000000000000000000:>)%%%%%%$%",
"$($%%%%%%++000000000000000000000000000000;:)$($%$(%%",
"$$%%$%%%$):,0000000000000000000000000000,F3)$%%%%$$&",
"'%(%%%$$)(@<J00000000000000000000000000.A<+((%$%%%%D",
" (&%%%(%$(*957A=======================A7<9)$%%(%$$( ",
" &(%%$%%%%()+::>>>>>>>>>>>>>>>>>>>>>>>:4+)(%%%$$(%$ ",
"  (%$%%%%%(%(*)************************()%%$($%%%%  ",
"  D(%%%%%%$%%$%%%%%%%%%%%%%%%%%%%%%%%%%%%$%%$%%%%&  ",
"   %$(%%%%%%%%%%%%%%%%%%%%%%%%%%%%%%%%%%($%%%%%%%   ",
"    %%%%%%%%%%%%%%%%%%%%%%%%%%%%%%%%%%%%$%%%$%%$    ",
"     D%%$(%$%%%%%%%%%%%%%%%%%%%%%%%%%%%%$(%&%%&     ",
"       (&%%$(%%%%%%%%%%%%%%%%%%%%%%%%%%$($%%$       ",
"       0J#%$%$%$$$$$$$$$$$$$$$$$$$$$$$$%&$D         "};