/* XPM */ 
static const char * document_xpm[] = {
"52 52 31 1",
" 	c None",
"!	c black",
"#	c #C6C7C6",
"$	c #B5B6B5",
"%	c #B5B2B5",
"&	c #BDBABD",
"'	c #C6C3C6",
"(	c #ADAEAD",
")	c #ADAAAD",
"*	c #A5A6A5",
"+	c white",
",	c #CECFCE",
"-	c #FFFBFF",
".	c #9C9A9C",
"0	c #949694",
"1	c #A5A2A5",
"2	c #9C9E9C",
"3	c #7B7D7B",
"4	c #8C8E8C",
"5	c #7B797B",
"6	c #848684",
"7	c #8C8A8C",
"8	c #949294",
"9	c #737573",
":	c #BDBEBD",
";	c #6B696B",
"<	c #636563",
"=	c #848284",
">	c #6B6D6B",
"?	c #5A595A",
"@	c #525552",
"         #$$%$%$$$$$$$$%%%$$$$$$$$$$$$$$&$'         ",
"       %$(%$%$%%%%%%%%%%%%%%%%%%%%%%%%%%($%%%       ",
"     &%%$%%%(%%%%%%%%%%%%%%%%%%%%%%%%%%%$((&((&     ",
"    $$%%%%%$$%%%%%%%%%%%%%%%%%%%%%%%%%%%%%$(%%$%    ",
"   $%)$%%%%%%%%%%%%%%%%%%%%%%%%%%%%%%%%%%%%%$%(%%   ",
"  &%%$%%%%%$$%%%%%%%%%%%%%%%%%%%%%%%%%%%%%(%%%%%%&  ",
"  %%$($%%%%((************))((%%%%%%%%%%%$%$%%$($%%  ",
" %%%%%%%%%%)++++++++++++++**(,))%%%%%%%%%%%%%%%%%%% ",
" $%$%%%%%%(*+++++++++++++-.01+%2)(%($%$%%%%%%%%%%$& ",
"#%(%%%%%%%(2++++++++++++++340++'0)(%($%%%%%%%%%%%%(#",
"$%%%%%%%$%(.++++++++++++++560+++%.((($%%%%%%%%%%%%%$",
"$%$%%%%%$%(0+++++++++++-++574+-++&8)%%%%%%%%%%%%%$%$",
"$(%%%%%%%%(.++++++++++++-+578+++++$0)%%%%%%%%%%%%%($",
"$%%%%%%%%%(.++++++++++++++974+-+-++:0)(%%%%%%%%%%%%$",
"%%%%%%%%%%(.++++++++++++++578-++++++$2*%%%%%%%%%%%%%",
"%%%%%%%%%%(.++++++++++++++564++++++++$.)%($%%%$%%%%$",
"%%%%%%%%%%(.++++++++++++++544+++++++++$.(%%$%(%%%%%$",
"%%%%%%%%%%(.++++++++++++++574+++++-+-++#*(%%$%%%%%%$",
"%%%%%%%%%%(.++++++++++++++57289;;<<<;;381($%(%%%%%%$",
"%%%%%%%%%%(.++++++++++++++9=.18477777881)((%$%%%%%%$",
"%%%%%%%%%%(.++++++++++++++>348887848470.*)%$%$%%%%%$",
"%%%%%%%%%%(.+++++++++++++++++++++++-++-+.*$(%%%%%%%$",
"%%%%%%%%%%(.+++++++++++++++-++++++++++++6*%%%%$%%%%$",
"%%%%%%%%%%(.++++++++++++++++++++++++++++32%%%%%%%%%$",
"%%%%%%%%%%(.++++++++++++++++++++++++++++32%%%%%%%%%$",
"%%%%%%%%%%(.++++++++++++++++++++++++++++52%%%%%%%%%$",
"%%%%%%%%%%(.++++++++++++++++++++++++++++52%%%%%%%%%$",
"%%%%%%%%%%(.++++++++++++++++++++++++++++52%%%%%%%%%$",
"%%%%%%%%%%(.++++++++++++++++++++++++++++52%%%%%%%%%$",
"%%%%%%%%%%(.++++++++++++++++++++++++++++52%%%%%%%%%$",
"%%%%%%%%%%(.++++++++++++++++++++++++++++52%%%%%%%%%$",
"%%%%%%%%%%(.++++++++++++++++++++++++++++52%%%%%%%%%$",
"%%%%%%%%%%(.++++++++++++++++++++++++++++52%%%%%%%%%$",
"%%%%%%%%%%(.++++++++++++++++++++++++++++52%%%%%%%%%$",
"%%%%%%%%%%(.++++++++++++++++++++++++++++52%%%%%%%%%$",
"%%%%%%%%%%(.++++++++++++++++++++++++++++52%%%%%%%%%$",
"%%%%%%%%%%(.++++++++++++++++++++++++++++52%%%%%%%%%$",
"%%%%%%%%%%(.++++++++++++++++++++++++++++52%%%%%%%%%$",
"%%%%%%%%%%(.++++++++++++++++++++++++++++52%%%%%%%%%$",
"$%%$%($%%$(0++++++++++++++++++++++++++++51($%%%%%%$%",
"$($%%%%%%%(2++++++++++++++++++++++++++++3.$%%$%%$(%%",
"$$%%$%%%$(%0++++++++++++++++++++++++++++51%($(%%%$$&",
"'%(%%%$%%$(.++++++++++++++++++++++++++++52%%%$%%%%%:",
" (&%%%(%$%)2++++++++++++++++++++++++++++=1%%%%$%$$( ",
" &(%%$%$)$%26;?@@@@@@@@@@@@@@@@@@@@@@@?>7*($%%%$(%$ ",
"  (%$%%($$%)28========================682(%(%$%%%%  ",
"  :(%%%%%%(%(**11111111111111111111111**)(($%(%%%&  ",
"   %$(%%%%%%%%%%%%%%%%%%%%%%%%%%%%%%%%%%(%%%%$%%%   ",
"    %%%%%%%%%%%%%%%%%%%%%%%%%%%%%%%%%%%%$%%%%%%$    ",
"     :%%$(%$%%%%%%%%%%%%%%%%%%%%%%%%%%%%%%%&%%:     ",
"       (&%%$(%$%%%%%%%%%%%%%%%%%%%%%%%%$($(%$       ",
"         #%$%$%$$$$$$$$$$$$$$$$$$$$$$$$%$$:         "};