/* XPM */ 
static const char * finder_xpm[] = {
"52 52 43 1",
" 	c None",
"!	c black",
"#	c #C6C7C6",
"$	c #B5B6B5",
"%	c #B5B2B5",
"&	c #BDBABD",
"'	c #C6C3C6",
"(	c #ADAEAD",
")	c #ADAAAD",
"*	c #BDBEBD",
"+	c #CECBCE",
",	c #A5A6A5",
"-	c #9C9A9C",
".	c #949694",
"0	c #9C9E9C",
"1	c #A5A2A5",
"2	c #DEDFDE",
"3	c #F7F7F7",
"4	c white",
"5	c #D6D7D6",
"6	c #EFEFEF",
"7	c #FFFBFF",
"8	c #8C8A8C",
"9	c #CECFCE",
":	c #848684",
";	c #7B7D7B",
"<	c #949294",
"=	c #737173",
">	c #6B696B",
"?	c #6B6D6B",
"@	c #737573",
"A	c #636563",
"B	c #8C8E8C",
"C	c #7B797B",
"D	c #5A5D5A",
"E	c #D6D3D6",
"F	c #5A595A",
"G	c #636163",
"H	c #EFEBEF",
"I	c #848284",
"J	c #525552",
"K	c #525152",
"L	c #E7E7E7",
"         #$$%$%$$$$$$$$$$$$$$$$$$$$$$$$$&$'         ",
"       %$(%$%$%%%%%%%%%%%%%%%%%%%%%%%%%%($%%%       ",
"     &%%$%%%%%%%%%%%%%%%%%%%%%%%%%%%%%%%$((&((&     ",
"    $$%%%%%$$$%%%%%%%%%%%%%%%%%%%%%%%%%%%%$(%%$%    ",
"   $%)$%$%%%((%%%%%%%%%%%%%%%%%%%%%%%%%%%%%%$%(%%   ",
"  &%%$%%%%%%$%%%%%%%%%%%%%%%%%%%%%%%%%%%%%(%%%%%%&  ",
"  %%$($%%%%%%%%%%%%%%%%%%%%%%%%%%%%%%%%%$%$%%$($%%  ",
" ($$($%%$%%$%($$%($%%%%%%%$%%$%%%%%%%%%$(%%%$%%%%%( ",
" &(%%%%%$$%%%%%%%$(%$%$%$%$%%%%%%%%%%%%%$%%%($%%$$% ",
"*($%%%%%%%%%%$%$%%%$%(%(%%%%%%$%%%%%%%%%%%%$%$%%%%%+",
"&$%%%$%%((%(((((%(()%%%%%%((((%((((((((%)(%((%%%%%%$",
"%%%$%%(),-.--.--.----0,),1--0-.------------1,)$%%$$$",
"$$((%(,2344444444444430154444444444444444444)11(%%%%",
"$%%$(,64447444444444728-64444444444444444447490)%%%%",
"%$$%)0444444444444744):84444444444444444444444:1(%$%",
"$%%%1*444444444444444;:<4444444444444444444444=.(%%$",
"$%%%1*444444444444444>804444444444444444444444?<(%%$",
"$%%%0*444444444<=@744?8%4444444444@@4444444444AB)%%$",
"$%%%0*444444444CDD444=BE4444444444FG4444444444AB)%%$",
"$%%%0*444444444:=@442;8H4444444444>C4444444444AB)%%$",
"$%%%0*4444444448II44'@B44444444444@:4444444444AB)%%$",
"$%%%0*4444444448CC441I:44444444744@;4444444444AB)%%$",
"$%%%0*444444444337448I:44444444444374444444444AB)%%$",
"$%%%0*44444744444444CI:44444474444444444444744>B)%%%",
"$%%%0*44444444444444=I:44744444444444444444444GB)%%%",
"$%%%0*44444474444444AI<;ADFJJK4444444447444444AB)%%%",
"$%%%0*44444444444444FIB8;C;CC=4444444444444444>B)%%%",
"$%%%0*4444744444444444444448B:7444444444444744GB)%%%",
"$%%%0*444447444444444444744:884444444444444447>B)%%%",
"$%%%0*447444444444444444444@8:4444444444444444AB)%%%",
"$%%%0*4444+4444444444444444;:84444444449<G4444AB)%%%",
"$%%%0*4444KFGB#444444444444<:B44444'8FD>?>4444>B)%%%",
"%($(-*4444DI;CC=>G>C8.-1)()8<.<=GG?=C@::BC4444GB)%%%",
"$$%%,&4447#<8B88::IICC;CCCI<01<B:8:8BB.5444444AB)%%%",
"$$(%0*44444444L+&1-.<8:8::B.1,)01$+H4444444444AB)%%$",
"$%%%-*4444744744444444444443006444444444744444AB)%%$",
"$%%%,14444444444444444444443:.L444444444444444><)%%$",
"%%%%,B4744447444444444444447I8*444444444444443=.(%%$",
"$$%((.&474444444444444447444;81444444444444448;-%%%$",
"$%%$(1BC*7444444444444444444<B8444444444447)G;.)(%$%",
"$($(%%1BI?A>>>A>>>>>>>>A?AA@8--:C>A>>>>>AA=@;-,($(%$",
"%&%($(),0...<<..........<.-.,,)1-<<..<<<...-1)%%%$$&",
"*%%%$%%%(()))))))))))))(,)(()%%(((()))())))%%(%%%%%'",
" ($$%%%%%%%%(%%%%%%%%%%%$(%%$$($%%%%%%%%%$%(%$$($$( ",
" &(%%%$%%%%$$$%%%%%%%%%%%$$%%($%%%%$$%%%%%%%%$)%%($ ",
"  %$%%%(%$%%%%%%%%%%%%%$($(%$%%%%%%(%%%%%%%%%$$%$%  ",
"  &%%$%$%%%%%%%%%%%%%%%%%%$($$%%%%%%%%%%$%%%%%%%$&  ",
"   %$(%%%%%%%%%%%%%%%%%%%%%%%%%%%%%%%%%%($%%%%%%%   ",
"    %%%%%%%%%%%%%%%%%%%%%%%%%%%%%%%%%%%%$%%%$%%$    ",
"     *%%$(%$%%%%%%%%%%%%%%%%%%%%%%%%%%%%$(%&%%&     ",
"       (&%%$(%%%%%%%%%%%%%%%%%%%%%%%%%%$($%%$       ",
"         #%$%$%$$$$$$$$$$$$$$$$$$$$$$$$%&$*         "};