/* XPM */ 
static const char * find_xpm[] = {
"52 52 43 1",
" 	c None",
"!	c black",
"#	c #C6C7C6",
"$	c #B5B6B5",
"%	c #B5B2B5",
"&	c #BDBABD",
"'	c #C6C3C6",
"(	c #ADAEAD",
")	c #ADAAAD",
"*	c #A5A6A5",
"+	c #A5A2A5",
",	c #BDBEBD",
"-	c #D6D7D6",
".	c #D6D3D6",
"0	c #9C9E9C",
"1	c #DEDFDE",
"2	c white",
"3	c #FFFBFF",
"4	c #F7F7F7",
"5	c #9C9A9C",
"6	c #CECFCE",
"7	c #E7E7E7",
"8	c #F7F3F7",
"9	c #8C8A8C",
":	c #636163",
";	c #6B696B",
"<	c #737573",
"=	c #949694",
">	c #EFEFEF",
"?	c #6B6D6B",
"@	c #7B7D7B",
"A	c #848684",
"B	c #7B797B",
"C	c #E7E3E7",
"D	c #5A5D5A",
"E	c #848284",
"F	c #8C8E8C",
"G	c #949294",
"H	c #DEDBDE",
"I	c #737173",
"J	c #EFEBEF",
"K	c #636563",
"L	c #CECBCE",
"         #$$%$%$$$$%%%%$$$$$$%%$$$$$$$$$&$'         ",
"       %$(%$%$%%%%%%%%%%%%%%%%%%%%%%%%%%($%%%       ",
"     &%%$%%%%%%%%%%%%%%%%%%%%%%%%%%%%%%%$((&((&     ",
"    $$%%%%%$$$%%%%%%%%%%%%%%%%%%%%%%%%%%%%$(%%$%    ",
"   $%)$%$%%%((%%%%%%%%%%%%%%%%%%%%%%%%%%%%%%$%(%%   ",
"  &%%$%%%%%%$%%%%%%%%%%%%%%$%%%%%%%%%%%%%%(%%%%%%&  ",
"  %%$($%%$%%%%%%%(())))(((%%%%%%%%%%%%%%$%$%%$($%%  ",
" %(%%%%%$%($%%()*+,'-.,*+0*%%%%%%$%$%%%%%%%%%%%%%%% ",
" $%$%%%%%$%%()*#1232222241*5)($$%%$(%%%%%%%%%%%%%$& ",
"#%(%%%%$(%$**622222322222227++))$%%$($%%%%%%%%%%%%(#",
"$%%%%$%%%%(*12223222442223224%0(($%%%%%%%%%%%%%%%%%$",
"$%$$%%%%%)+222328)9::;<=822222$=)$%($%%%%%%%%%%%%$%$",
"$(%%%%%%(*>2222)?;<@AA@B?<>2222)=)(%%%%%%%%%%%%%%%($",
"$%%%%%%()C222&D?EF0*)+)0=9<=222205(%$($%%%%%%%%%%%%$",
"%%%%%%%()2324:<G0*((%%(%)+FE)222CG*(%%%%%%%%%%%%%%%%",
"$%%%%%(+7222<@G*(%%%%%%%%()0EC222F=(%%%%%%%%%%%%%%%$",
"$%%%%%)=223H;F*(%%%%%%%%%$)(5A222C9)%($%%%%%%%%%%%%$",
"$%%%%%*H322?E0$%%%%%%%%%%%%%+98222E0%(%%%%%%%%%%%%%$",
"$%%%%(+4224?9)(%%%%%%%%%%%%$)0'2225=(%%%%%%%%%%%%%%$",
"$%%%%)5222CI5($%%%%%%%%%%%%%%05222&G)%%%%%%%%%%%%%%$",
"$%%%%)5222&E0(%%%%%%%%%$%%%%()F222.F)(%%%%%%%%%%%%%$",
"$%%%%)=222%A*%%%%%%%%%%(%$($%+G223-A+%$%%%%%%%%%%%%$",
"$%%%%)=222.9+($%%%%%%%%%%%$%%(5222#9*%(%%%%%%%%%%%%$",
"%%%%$(=222JE+%%%%%%%%%$%%%%%%)(222*F*%%%%%%%%%%%%%%$",
"%%%%%(5J222A5(%$$$%%%%%%$($$(0C232EF*$$%%%%%%%%%%%%$",
"$%%%%(0(3225G*%((%%$$%($%%((%53223?G(((%%%%%%%%%%%%$",
"$%%%%%*93224A+($%$$%(%$%($%$+&222)B*)$$%%%%%%%%%%%%$",
"$%%%%%)G'222'G)%%%%%%%%$%$$(+2223K9+(%%%%%%%%%%%%%%$",
"$%%%%%(+A2222==)(%%%$$%%(%)+C222,?G(%%%%%%%%%%%%%%%$",
"$%%%%%%)=*2222#5+)%%%%%(%)(>22222GG*)$%%%%%%%%%%%%%$",
"$%%%%%%(*A*22228L+5+****%122322222$0)(%%%%%%%%%%%%%$",
"%%%%%%%%%5E62222238.,,1822222222222+5)%%%%%%%%%%%%%$",
"%%%%%%%$()0@542222222222222242222233%0*(%%%%%%%%%%%$",
"%%%%%%%(%%)+A<$22222222222HE822222222+0)$(%%$%%%%%%$",
"%%%%%%%%$(%)0FBI*7J3424>,F:KI>22222223)+*$$%%(%%%%%$",
"%%%%%%%%$(%$%*0GA<IIIKK;I@FGAB822222322*5*(%$$%%%%%$",
"%%%%%%%$%$%(%%(*+5F9999G=5+*+FEJ22222222(+($(%%%%%%$",
"%%%%%%%%%$$%$%%%()())+)))%%%%*GB722322222=5($$%%%%%$",
"%%%%%%%$$(%%%%%%%$(%%%%%$%%%%(+F@42222222.G)%%%%%%%$",
"$%%$%($%%%%%%%%%%%%%%%%%%%%%%%%)GB-222222>A*%%%%%%$%",
"$($%%%%%%%%%%%%%%%%%%%%%%%%%%%%%*F@822222$E+%(%%$(%%",
"$$%%$%%%%%%%%%%%%%%%%%%%%%%%%%%%%*G@H2227<G*$$%%%$$&",
"'%(%%%$%%%%%%%%%%%%%%%%%%%%%%%%%%%*F@%');E5%()$%%%%,",
" (&%%%(%%%%%%%%%%%%%%%%%%%%%%%%%%$%+5EE@F+)($%$%$$( ",
" &(%%$%%%%%%%%%%%%%%%%%%%%%%%%%%%%%$(*00+)%%%$($(%$ ",
"  (%$%%%%%%%%%%%%%%%%%%%%%%%%%%%%%%$((%%(%($%%$%%%  ",
"  ,(%%%%%%%%%%%%%%%%%%%%%%%%%%%%%%%%$%%%$%$%%%%%%&  ",
"   %$(%%%%%%%%%%%%%%%%%%%%%%%%%%%%%%%%%%($%%%%%%%   ",
"    %%%%%%%%%%%%%%%%%%%%%%%%%%%%%%%%%%%%$%%%$%%$    ",
"     ,%%$(%$%%%%%%%%%%%%%%%%%%%%%%%%%%%%$(%&%%&     ",
"       (&%%$(%%%%%%%%%%%%%%%%%%%%%%%%%%$($%%$       ",
"         #%$%$%$$$$$$$$$$$$$$$$$$$$$$$$%&$,         "};