/* XPM */ 
static const char * firewire_xpm[] = {
"52 52 42 1",
" 	c None",
"!	c black",
"#	c #C6C3C6",
"$	c #B5B2B5",
"%	c #B5B6B5",
"&	c #BDBABD",
"'	c #BDBEBD",
"(	c #ADAEAD",
")	c #ADAAAD",
"*	c #A5A6A5",
"+	c #A5A2A5",
",	c #9C9E9C",
"-	c #EFEBEF",
".	c white",
"0	c #DEDBDE",
"1	c #9C9A9C",
"2	c #E7E3E7",
"3	c #949694",
"4	c #7B7D7B",
"5	c #737573",
"6	c #7B797B",
"7	c #8C8A8C",
"8	c #EFEFEF",
"9	c #8C8E8C",
":	c #C6C7C6",
";	c #F7F3F7",
"<	c #FFFBFF",
"=	c #525552",
">	c #6B6D6B",
"?	c #848684",
"@	c #848284",
"A	c #949294",
"B	c #E7E7E7",
"C	c #F7F7F7",
"D	c #D6D7D6",
"E	c #D6D3D6",
"F	c #CECBCE",
"G	c #737173",
"H	c #DEDFDE",
"I	c #6B696B",
"J	c #CECFCE",
"K	c #636563",
"         #$%%$&%%%%%%%%%%%%%%%%%%%%%%%%$&&'         ",
"       $%$%$$($$$$$$$$$$$$$$$$$$$$$$$$$$($%$$       ",
"     &$$$%$$$%$$$$$$$$$$$$$$$$$$$$$$$$$%%$$%$$&     ",
"    %%$$%$$$$$%$$$$$$$$$$$$$$$$$$$$$$$$$$$$$%$$$    ",
"   %$)%$$(%$$)((((((((((((((((((((((((($$$$%$%$$$   ",
"  &$$%$$$%(*+,,,,,,,,,,,,,,,,,,,,,,,,,,,*(((%($$$&  ",
"  $$%(%$$(*-............................01*(%(%%$$  ",
" $$$$$$%(+...............................23*$$$$$$$ ",
" %$%$$$()'..2454646646666666666646646578..9+$$%$$%& ",
":$($$$$();.<=>??@????@???????????7?@7?4>..&A*%$$$$(:",
"%$$$$$$$,;.->9,**++++**++++++++++*+*++1@<.$3)$($$$$%",
"%$%$$$$(+;.B5,$($($$$$($$$$$$$$$((($$))AC.$9*$%$$%$%",
"%($$$$$(,<.B@+$$$%$$%$$$$$$$$$$(%($($%(3C.$7*%$$$$(%",
"%$$$$$$$,;.2@+$($(())$($$$$$$$$$())((((3;<%9*$$$$$$%",
"$$$$$$$(,C.-4+$$(*DE,)$$$$$$$$$)).F,)((3C.(9*$$$$$$$",
"$$$$$$$(,;.B4+((*B..3,$$$$$$$%),.<.'3))3C.$9*$$$$$$%",
"$$$$$$$(,;.B4+(+E..,?,)($($$$)*.....'1*3C.$9*$$$$$$%",
"$$$$$$$(,;.B4+*B..6G@8H,*$$$(*<......1,3C.$9*$$$$$$%",
"$$$$$$$(,;.B4,+..6G@<..+*$$$+....<..D@33C.$9*$$$$$$%",
"$$$$$$$(,;.B4,+)+662.<@7+)(*+1<....%I7+3C.$9*$$$$$$%",
"$$$$$$$(,;.B4,*,9?<<.6593&$,1?7...JI?*+3C.$9*$$$$$$%",
"$$$$$$$(,;.B4+)*,'..GG@E....J76@<EK41*$3C.$9*$$$$$$%",
"$$$$$$$(,;.B4+$$(1974@<..-;..C?@667+)$)3C.$9*$$$$$$%",
"$$$$$$$(+;.B4+$$(*1AA+..>II5..A931+)$$(3C.$9*$$$$$$%",
"$$$$$$$(+;.B4+$$$)(*10.(>@9@#.'9+)($$$(3C.$9*$$$$$$%",
"$$$$$$$(+;.B4+$$%$$$,B<,41*1(.J7*$$$$$(3C.$9*$$$$$$%",
"$$$$$$$(+;.B4+$$$$((,%.2?1)38.+?*$($$$(3C.$9*$$$$$$%",
"$$$$$$$(+;.B4+$$($$$+3<.&91:..69)$($%$(3C.$9*$$$$$$%",
"$$$$$$$(+;.B4+$$$%%()3$...<..1@1($$%$$(3C.$9*$$$$$$%",
"$$$$$$$(+;.B4+$$%$$((+?9<..C659*($$$$$(3C.$9*$$$$$$%",
"$$$$$$$(+;.B4+$$$$$$$)+96GI5@A*$$$$$$$(3C.$9*$$$$$$%",
"$$$$$$$(+;.B4+$$$$%$$$*177@@9+)$$$$$$$(3C.$9*$$$$$$%",
"$$$$$$$(+;.B4+$$$$$$$(+<<<C<.3)$$$$$$$(3C.$9*$$$$$$%",
"$$$$$$$(+;.B4+$$$$$$$(,......7+($$$$$$(3C.$9*$$$$$$%",
"$$$$$$$(+;.B4+$$$$$$$(,1?@4479*($$$$$$(3C.$9*$$$$$$%",
"$$$$$$$(+;.B4+$$$$$$$(+A4666?3*($$$$$$(3C.$9*$$$$$$%",
"$$$$$$$(+;.B4+$$$$$$$$+-BB2B-3*($$$$$$(3C.$9*$$$$$$%",
"$$$$$$$(+;.B4+$$$$$$$(+.....<A+($$$$$$(3C.$9*$$$$$$%",
"$$$$$$$(+;.B4+$$$$$$$(,75>KI4?*($$$$$$(3C.$9*$$$$$$%",
"%$$%$(%$,C.B4*$$$$$$$()1A777A,)($$$$%$(3;.$9*$$$$$%$",
"%(%$$$$$,C.2?,($$$$$$$()*+***)$$$$$($$$3C.(7*(%$%($$",
"%%$$%$$(,C.B6+$$$$$$$$$$$$$$$$$$$$$$$((A<.%A*%$$$%%&",
"#$($$$%$,-..53*((((((((((((((((())((())3..*7)%$$$$$'",
" (&$$$(()+..<'%&'''''''&''''''&''''''':<..GA*$$$%%( ",
" &($$%$()92..............................$G,($$%($% ",
"  ($%$$$(,?$;..........................B+GA+$($$$$  ",
"  '($$$$()176>>>IIIIII>III>>II>IIIIII>>>69,$($%$$&  ",
"   $%($$$$)+19799999999999999999999999933*($$$$$$   ",
"    $$$$$$$(((()))))))))))))))))))))))))$$$$$($%    ",
"     '$$%($%$$$$$$$$$$$$$$$$$$$$$$$$$$$$$($%$$'     ",
"       (&$$%$$$$$$$$$$$$$$$$$$$$$$$$$$$%(%($$       ",
"         :%%%%%$$$$$$$$$$$$$$$$$$$$$$$$$&%#         "};