/* XPM */ 
static const char * folder_xpm[] = {
"52 52 38 1",
" 	c None",
"!	c black",
"#	c #C6C7C6",
"$	c #B5B6B5",
"%	c #B5B2B5",
"&	c #BDBABD",
"'	c #C6C3C6",
"(	c #ADAEAD",
")	c #ADAAAD",
"*	c #A5A6A5",
"+	c #A5A2A5",
",	c #CECBCE",
"-	c #D6D3D6",
".	c #CECFCE",
"0	c #FFFBFF",
"1	c white",
"2	c #949294",
"3	c #7B7D7B",
"4	c #9C9E9C",
"5	c #737573",
"6	c #9C9A9C",
"7	c #949694",
"8	c #6B6D6B",
"9	c #848684",
":	c #E7E7E7",
";	c #DEDFDE",
"<	c #DEDBDE",
"=	c #848284",
">	c #8C8E8C",
"?	c #D6D7D6",
"@	c #8C8A8C",
"A	c #737173",
"B	c #7B797B",
"C	c #F7F3F7",
"D	c #F7F7F7",
"E	c #6B696B",
"F	c #636563",
"G	c #BDBEBD",
"         #$$%$%$$$$$$$$$$$$$$$$$$$$$$$$$&$'         ",
"       %$(%$%$%%%%%%%%%%%%%%%%%%%%%%%%%%($%%%       ",
"     &%%$%%%%%%%%%%%%%%%%%%%%%%%%%%%%%%%$((&((&     ",
"    $$%%%%%$$$%%%%%%%%%%%%%%%%%%%%%%%%%%%%$(%%$%    ",
"   $%)$%$%%%((%%%%%%%%%%%%%%%%%%%%%%%%%%%%%%$%(%%   ",
"  &%%$%%%%%%$%%%%%%%%%%%%%%%%%%%%%%%%%%%%%(%%%%%%&  ",
"  %%$($%%%%%%%%%%%%%%%%%%%%%%%%%%%%%%%%%$%$%%$($%%  ",
" %%(%%%%%%%%%%%%%%%%%%%%%$%%%%%%%%%%%%%%%%%%%%%%%(( ",
" %$$%$%%%%%%$%%%%%%%%%%%%%%%%%%%%%%%%%%%%%%%%%%%%$$ ",
"#(%%(%%(()*************((%%(%%%%%%%%%%%%%%%%%%%$%%(#",
"$$%$$%(+$,-...-........-+(%%%%%%%%%%%%%%%%%%%%%%%%%$",
"$%%%%(*011111101111111112+($%(%%%%%%%%%%%%%%%%%%%$$$",
"$%$%%)-0111111111111111134(%$%%%%%%%%%%%%%$%%%%%%%(%",
"(%$%(411111111111111111156)(%%(%%%%%%%%(%%%((%%%%$%$",
"&%%$)711111111111111111189++44++++++++++++44+*)%%%%%",
"%%%%)2111111111111111111111111111111111111111:4)%%%$",
"%%%%)2111111111111111111111111111111111111111;2*%%%$",
"%%%%)2111111111111111111111111111111111111111<9+(%%$",
"%%%%)2111111111111111111111111111111111111111<=4(%%$",
"%%%%)2111111111111111111111111111111111111111<=4(%%$",
"%%%%)2111111111111111111111111111111111111111<=+(%%$",
"%%%%)2111111111111111111111111111111111111111<=4(%%$",
"%%%%)2111111111111111111111111111111111111111<=4(%%$",
"%%%%)2111111111111111111111111111111111111111<=4%%%$",
"%%%%)2111111111111111111111111111111111111111<=4%%%$",
"%%%%)2111111111111111111111111111111111111111<=4%%%$",
"%%%%)2111111111111111111111111111111111111111<=4%%%$",
"%%%%)2111111111111111111111111111111111111111<=4%%%$",
"%%%%)2111111111111111111111111111111111111111<=4%%%$",
"%%%%)2111111111111111111111111111111111111111<=4%%%$",
"%%%%)2111111111111111111111111111111111111111<=4%%%$",
"%$%%)2111111111111111111111111111111111111111-=4(%%$",
"%%%$)>111111111111111111111111111111111111111;34(%%$",
"$%%%*>111111111111111111111111111111111111111;34(%%$",
"$%(%)2111111111111111111111111111111111111111?=4(%%$",
"$%%$)2011111111111111111111111111111111111111<34(%%$",
"%%$%*2111111111111111111111111111111111111111;=+(%%$",
"$%$%*7111111111111111111111111111111111111111'9+%%%$",
"$%%$(7:111111111111111111111111111111111111117@+%%%$",
"$%%$(+91111111111111111111111111111111111111,A6)(%$%",
"$($%()2B'CDC00DDDDDDDDDDDDDDDDDDDDDDDDDD0CC3E@+(%(%%",
"%$%%$%*7@588EF8EEEEEEEEEEEEEEEEEEEEEEEEEF85B2+)%%$$&",
"'$((%(()+7222>>2222222222222222222222222>724*)%%%%(G",
" )&%%%%(%())))))))))))))))))))))))))))))(*(%%%%($$( ",
" &%%%%%%%%%%$$%%%%%%%%%%%%%%%%%%%%%%%%%$($%%%%%$%%$ ",
"  %%$%%$%%%$%%%%%%%%%%%%%%%%%%%%%%%%%%%%$%%%%%%%$%  ",
"  G(%%%%%$%%%%%%%%%%%%%%%%%%%%%%%%%%%%%$($%%%$%%$&  ",
"   %$(%%%%%%%%%%%%%%%%%%%%%%%%%%%%%%%%%%($%%%%%%%   ",
"    %%%%%%%%%%%%%%%%%%%%%%%%%%%%%%%%%%%%$%%%$%%$    ",
"     G%%$(%$%%%%%%%%%%%%%%%%%%%%%%%%%%%%$(%&%%&     ",
"       (&%%$(%%%%%%%%%%%%%%%%%%%%%%%%%%$($%%$       ",
"         #%$%$%$$$$$$$$$$$$$$$$$$$$$$$$%&$G         "};