/* XPM */ 
static const char * gear_xpm[] = {
"52 52 44 1",
" 	c None",
"!	c black",
"#	c #C6C7C6",
"$	c #B5B6B5",
"%	c #B5B2B5",
"&	c #BDBABD",
"'	c #ADAEAD",
"(	c #C6C3C6",
")	c #ADAAAD",
"*	c #A5A2A5",
"+	c #A5A6A5",
",	c white",
"-	c #FFFBFF",
".	c #E7E3E7",
"0	c #949294",
"1	c #DEDBDE",
"2	c #848684",
"3	c #9C9A9C",
"4	c #F7F3F7",
"5	c #7B7D7B",
"6	c #9C9E9C",
"7	c #D6D3D6",
"8	c #EFEBEF",
"9	c #8C8E8C",
":	c #949694",
";	c #F7F7F7",
"<	c #848284",
"=	c #D6D7D6",
">	c #E7E7E7",
"?	c #DEDFDE",
"@	c #6B696B",
"A	c #8C8A8C",
"B	c #737173",
"C	c #636163",
"D	c #636563",
"E	c #737573",
"F	c #CECFCE",
"G	c #6B6D6B",
"H	c #EFEFEF",
"I	c #CECBCE",
"J	c #7B797B",
"K	c #5A5D5A",
"L	c #525552",
"M	c #BDBEBD",
"         #$$%$%$$$$$$%$%&$'$%$%$$$$$$%$$&$(         ",
"       %$'%$%$%%%%%%%%%%%%%$%%$%%%%%%%%%'$%%%       ",
"     &%%$%%%%%%%%%%%%%%$'%%'%'%%%%%%%%%%$''&''&     ",
"    $$%%%%%$$$%%%%%%%%%')*+*+)%'%%%%%%%%%%$'%%$%    ",
"   $%)$%$%%%''%$%%$%$$'%,,,,-.*'%$%%%%$%%%%%$%'%%   ",
"  &%%$%%%%%%$%%%%%%%%%+$,,,,,-0+'%%%%%%%%%'%%%%%%&  ",
"  %%$'$%%%%%%%%%%$%%$'*1,,,,,,2*'%%%%%%%$%$%%$'$%%  ",
" %%%%%%%%$%%%%'$'$%%$%34,-,,,,56'%$'$%%%%%'$%'$%%%% ",
" $%$%%%%%'%+)')'%$$%%)3-,,,,,,50%%$%%%'++'%%$%'%%$& ",
"#%'%%%%%%%+7,83*)'%'%'9,,,,,,,5:''%$'++,;:*%'%$%%%'#",
"$%%%%%%$'+(,,,,&3+)%+6*,,-,,,,<9+%'++=,,,89*%'%%%%%$",
"$%$%%%%''1,,,-,,;*3*.4,,,,-,,-->*33#,,,,,,43)'%%%$%$",
"$'%%%%%%+?,,,,,,,,.,,,,,,,,,,,,,,>?,,-,,,,,9*'$%%%'$",
"$%%%%%%%+04-,-,,,,,,,,,,,,,,,,,,,,,,,,,,,,92+'%%%%%$",
"%%%%%%%%'00,,,,,,,,,,,,,,,,,,,,,,,,,,,,,,1@0+%%%%%%%",
"$%%%%%%%'+A?,,,,,,,,,,,,,,,,,,,,,,,,,,,,,@<6''%%%%%$",
"$%%%%%%$%)65,,,,,,,,,,,,,,,,,,,,,,,,,,,,#B:'%$%%%%%%",
"$%%%%%%'$%)09,,,,,,,,,,,,,,,,-,-,,-,,,,>C2*'%%%%%%%$",
"$%%%%%%$$''3)-,,,,,-,,,,#%'(-,,,-,,,,,,>@:)$'%$%%%%$",
"$%%%%%%$'%'6,,,,,,,,,,0CDBEB@2;-,,,,,,,,'9+%%$%%%%%$",
"$%%%%%%%%%)F-,,,,,-,-DB<03300<GH,,,,,,,,H9+'$'%%%%%$",
"$%%%%''%)+6;,-,,-,,-@@96)+'%+6ABH,,,,,,,,50+)'%'%%%$",
"$%%')++'.,,,,,,,,,,&G9+'%%%''%+0A,,,,,,,,,,#+*6+)'%$",
"%&')I4,,,,,,,,,,,,,G<*'%%%%%%%'+A,,,,,,,,-,,,-8I6)%$",
"&'%*-,,,,,,,,,,,,,4B0)%%%%%%%%%)01,,,,,,,,,,,,,,06'%",
"%%'*--,,,,,,,,,,,,;E3'%%%%%%%%%'6#,-,,,,-,,-,,,,J0)$",
"$$'3,,,,,,,,,-,,,,;J3'%%%%%%%%%%*I,,,,,,,-,,,,,,E9)$",
"%''3;,,,-,,,-,,,,,-E*'%%%%%%%%%'6?,,,,,,,,,,,,,,B0'%",
"&$'+0)H,,,,,,-,,,-,30)%%%%%%%%%'3,,,,,,,-,,,;F<G<*)$",
"''%+:2BC9?,,,,,,,,,?A+'%%%%%%%')(,,,,,,,,H'KC@E23*%$",
"%%%')*:9<J@8,,,,,,,,%0)%%%%%%')3,,,,,,,,-LB<A33++%%%",
"%%%%%'')632',,,,,,,,,63+'%%%%)6,,,,,,,,,.G96+')%%%%%",
"%%%%%%%'%)62,,,-,,,,,,7*6*)**I-,,,,,,,,,B<6''%$%%%%%",
"%%%%%%%$$%'9',,,,,,,,,,,-44;,,,,,,,,,,,,JA+$%'$%%%%%",
"%%%%%%%%%%+0,,,,,,,,,;,,,,,,,,,,,,,,,,,,;2*'%$%%%%%%",
"%%%%%%%%%')8,,,,,,,,,,,-,,,,,,,,,,,,,,,,,$:)%$'%%%%%",
"%%%%%%%%$'6-,,,,,,,,,-,,,,,,,,,,,,,,,,,,,,2*'%$%%%%%",
"%%%%%%%%%*1,,,,,,,,-,,,,,,,,,,,,,,,,,,,,,,;9)'%%%%%%",
"%%%%%%%$)6,,,,,,,,,,,,,,,,,,,,,,,,,,,,,,,,,:3'%%%%%%",
"$%%$%'$%+4,,,,,,,?9-,,,,,,,,,,,,,)H,,,,,,-,)9'%%%%$%",
"$'$%%%%%)';,,-,-&KC@'4,,,,,,,,-FCCC%,,,,,,.E3+%%$'%%",
"$$%%$%%')00,,,#DG2995B,,,,,,,-<DJAA<B%,,,ID26'%%%$$&",
"(%'%%%$%'*A';@D50*)*32H,,,,,,,BJ3+*69J@?=D<6)%%%%%%M",
" '&%%%'$'%*9229*)%'%'*6,,-,,,,B0+%'$)60<296'%%%%$$' ",
" &'%%$%%$'%+36+)%%&$)+<,,,,,,-E3'%$'''+*3+)''$%$'%$ ",
"  '%$%%%%%''%%'%%%%%%)0.-,-,,(<*)$'$$%''''%$%'%%%%  ",
"  M'%%%'$$%%%%$%$%%$%'66,,,,,<A*%%%%%'%$%$%%%$%%%&  ",
"   %$'%%%%%%%%%%%%%$%'+9----;J0)'%%%%%%%'$%%%%%%%   ",
"    %%%%%%%%%%%%%%%%%')65E@DJA*'%%%%%%%%$%%%$%%$    ",
"     M%%$'%$%%%%%%%%%%%'6009:6)%%%%%%%%%$'%&%%&     ",
"       '&%%$'%%%%%%%%%%'')'+)$%%%%%%%%%$'$%%$       ",
"         #%$%$%$$$$$$$$%$$'&%%%$$$%$$$$%&$M         "};