/* XPM */ 
static const char * globe_xpm[] = {
"52 52 48 1",
" 	c None",
"!	c black",
"#	c #C6C7C6",
"$	c #B5B6B5",
"%	c #B5B2B5",
"&	c #BDBABD",
"'	c #C6C3C6",
"(	c #ADAEAD",
")	c #ADAAAD",
"*	c #A5A6A5",
"+	c #A5A2A5",
",	c #9C9E9C",
"-	c #E7E3E7",
".	c #E7E7E7",
"0	c #DEDFDE",
"1	c #BDBEBD",
"2	c #9C9A9C",
"3	c #DEDBDE",
"4	c white",
"5	c #D6D3D6",
"6	c #FFFBFF",
"7	c #8C8E8C",
"8	c #4A494A",
"9	c #525152",
":	c #F7F7F7",
";	c #8C8A8C",
"<	c #636563",
"=	c #636163",
">	c #525552",
"?	c #5A595A",
"@	c #CECBCE",
"A	c #5A5D5A",
"B	c #EFEBEF",
"C	c #6B696B",
"D	c #6B6D6B",
"E	c #7B797B",
"F	c #737573",
"G	c #737173",
"H	c #EFEFEF",
"I	c #949694",
"J	c #7B7D7B",
"K	c #D6D7D6",
"L	c #848684",
"M	c #848284",
"N	c #949294",
"O	c #F7F3F7",
"P	c #CECFCE",
"Q	c #4A4D4A",
"         #$$%$%%$$%%%%$$$%%$$%$%$$$$$$%$&$'         ",
"       %$(%$%$%$%%%$$$%%%$$%%%%%%%%%$$%%($%%%       ",
"     &%%$%%%%%%%%%%%%%%%%%(%%%$%%%%%(%$%$((&((&     ",
"    $$%%%%%$$$%%%%%%$$%$(%$%$%)%%%$$$%%%%%$(%%$%    ",
"   $%)$%$%%%((%%%%$$()()))**))%(%%(%%%%%%%%%$%(%%   ",
"  &%%$%%%%%%$%%%%())+,*'-.0-122,*(%%%%%%%%(%%%%%%&  ",
"  %%$($%%$%%%%%(%*(34444444444445*,*(%%%$%$%%$($%%  ",
" %%%%%%%%%$($%(),4444444444444444462,)(%$%%%$%%%%%% ",
" $%$%%%$%%(&()+.444-73448449:4#;-44432*(($%%%%%%%$& ",
"#%%%%%%($%((*'444*<=344>?44><44@A<$446(,(((%%%%%%%(#",
"$%%%%%%%%%%*144BCDE764FDF44CG;44EEFFH46(I)$%%%%%%%%$",
"$%$%%%%%%$*.441CJ;764KFLL66G;M.46M;;E144K2*%%%%%%$%$",
"$(%%%%%%%+&44+CMN2(44=L2;44FNIE44NN2IE*44+,*%%%%%%($",
"$%%%%%%%)$442DMN*I44EFI2744G7,;,44L2+IJ(44I2)$%%%%%$",
"%%%%%%%(,46KCJN,+'44DMI,;44EI2NJ44(2,,7FB447*(%%%%%%",
"$%%%%%%*54444444444444446444444444444444444$I)%%%%%$",
"$%%%%%(2464:6:66:44:::4O464:::6:6446::46:644L,%%%%%$",
"$%%%%%+:4KACDFGC,46?CFGG=46>CDFG=44JACFFG<.4B7)%%%%$",
"%%%%$),44<F7NINL:42G;NI7F44<M7NN;$4OD;NNIMF44;,(%%%$",
"%%%%%)$4:G7+)()N44<;+))*744GI*()2J44E2)))*L46+2)%%%$",
"%%$%(*-45J,%%%)N46GI)%%)744E2%(%*744E2($%*2-4P;*%%%$",
"%%%%),64;7+)%%)%4BE2%%%(N44E2($%(7647I)(%%,)4OL,%%%$",
"$%%%)I44GN*$%(*@4@J,($%)N44E2(%$)256$N*$%%*L44J,(%%$",
"%%%$)744FN*%(),.4)M+()(*N44FI)()(I&4#;+(%(*;44FI(%%%",
"$%%%*744CLN,2I704MG72,2NJ44CLN2,N7)4KF7222NJ64GN(%%%",
"$%%%*;4444444444444444444444444444444444444446C7)%%%",
"$%%$*;4644446444444444444444444444446444444444C7)%%$",
"$%%%*;44><GDGDC34JA<GGGGA449=GDDG<,45?CDFDC=64C7)%%$",
"$$%%*744CMNNNILP4+FLIIN;E44=M7IINL'41ELINI7J44GN(%%%",
"%$%%)N44DN+%)*,14#J2))();44GN)))+2.4,;,*%)+L44FI(%%%",
"%%%%)NO4(I)(%%*,44J,(%%)N44E2(%%(I44EN)%%%)#4-E2%%%$",
"%%%%(,@4-;*(%%*744E2(%%)744F2(%%)N44GI*%%%+H41J,(%%$",
"$%%%%,,44J,(%((744FI)$((I46EI%%%),64FI(%$*244J7+%%%$",
"$%%%%*;44,7)((*N34P;*)%*N44FI*))+B4'J2(()*&44FI)%%%$",
"%%%%((I&46L,+++N764JI++,L44GN+*+I44FJ2,++I44,J,(%%%$",
"%%%$%(+L444444444464444464444444444444444646G7)%%%%$",
"$$(%%()2I4444644444644444444444444464444444EE,(%%%%$",
"$$(%%%%+7H44QADC<G448?<<?44Q=C<>46AACC<>:4-GN)%%%%%$",
"$(%$%%(),J64:CJLLF64#DJME44=EMJ046=JLLE:46=L+)%%%%$$",
"$%%$%($%)NJ44OM2,NJ642N2;44DN,%44<MI,I:44CJ2(%%%%%$%",
"$($%%%%%(*7M444I,2;04:;2744E2N64@FN++464DEN((%%%$(%%",
"$$%%$%%%%(*7F464077J44K;L44GLB44<J7-646DEN*%%%$%%$$&",
"'%(%%%$%$%(,NGH444%EJ44$F44C144=D$4443<JN*%((%%%%%%1",
" (&%%%(%%$(()NML6444B.44I44(440.444OJFL2)($%&%$%$$( ",
" &(%%$%%(($%()2;GI44444444444444447DG7,(%%(%%(%$(%$ ",
"  (%$%%$%%%%%%(,2LFJ%3444444445*FDEL2*)%%%$%%$%%%%  ",
"  1(%%%%%%$%$(%%*+I;MFC==?A?A=GFM7I*(%%%$%%%%%%%%&  ",
"   %$(%%%%%%%%%%%()*,IN;LMMML772,*(%%%%%($%%%%%%%   ",
"    %%%%%%%%%%%%%%%%(()***+**))((%%%%%%%$%%%$%%$    ",
"     1%%$(%$%%%%%%%%%%%%%(((%%%%%%%%%%%%$(%&%%&     ",
"       (&%%$(%%%%%%%%%%%%%%%%%%%%%%%%%%$($%%$       ",
"         #%$%$%%$$$$$$$%%$$$%%%%$$$$$$$%&$1         "};