/* XPM */ 
static const char * hazard_xpm[] = {
"52 52 45 1",
" 	c None",
"!	c black",
"#	c #C6C7C6",
"$	c #B5B6B5",
"%	c #B5B2B5",
"&	c #BDBABD",
"'	c #C6C3C6",
"(	c #ADAEAD",
")	c #ADAAAD",
"*	c #A5A6A5",
"+	c #9C9E9C",
",	c #A5A2A5",
"-	c #D6D7D6",
".	c #F7F3F7",
"0	c white",
"1	c #F7F7F7",
"2	c #D6D3D6",
"3	c #FFFBFF",
"4	c #CECBCE",
"5	c #949694",
"6	c #E7E7E7",
"7	c #9C9A9C",
"8	c #BDBEBD",
"9	c #525552",
":	c #8C8A8C",
";	c #8C8E8C",
"<	c #636563",
"=	c #CECFCE",
">	c #6B696B",
"[	c #737173",
"@	c #5A595A",
"A	c #848284",
"B	c #949294",
"C	c #7B797B",
"D	c #5A5D5A",
"E	c #7B7D7B",
"F	c #EFEFEF",
"G	c #E7E3E7",
"H	c #848684",
"I	c #6B6D6B",
"J	c #737573",
"K	c #EFEBEF",
"L	c #DEDBDE",
"M	c #DEDFDE",
"N	c #636163",
"         #$$%$%$$$%%$$$$$%$$$$%%%$$$%%$$&$'         ",
"       %$(%$%$%(%%%%%%(%%%%%%%$$%%(%%%%%($%%%       ",
"     &%%$%%%%%%$%%%%%%%%%%%%%%%%%%$$%%%%$((&((&     ",
"    $$%%%%%$$$%%%%%%%%%$%%%%$$%$%%%%%%$%%%$(%%$%    ",
"   $%)$%$%%%((%$%%%%%(%)(())))((%%%%%%%%%%%%$%(%%   ",
"  &%%$%%%%%%$%%%%$%()*+,*(%(*,,*)(%(%%%%%%(%%%%%%&  ",
"  %%$($%%%%%%%%%()*$-.00000001.-$+,(((%%$%$%%$($%%  ",
" %%%%%%%$($%%%%(,2300000000000000045,)%($$($%$(%%%% ",
" $%$%%%%%$(%%%*$00000000000000000001$+)%%%%%%($%%$& ",
"#%%%%%%%($%$),1000000000000000000000067,*$%($$(%%%(#",
"$%%%%%%%%%(*(00031000000000000000030003++)%%%%%%%%%$",
"$%$%%%%%%%)$30089:3000000000000000;<-000(+*%%%%%%$%$",
"$(%%%%%%())000=>[[1000000000000003@[[-0005,)%%%%%%($",
"$%%%%%%$)+3005<A7BC00000000000000DC5;E+003B+%(%%%%%$",
"%%%%%%%(*F00G<H+*,;40000000000008IB,*7E4001B*%%%%%%%",
"$%($%(%)$006<A+)%(+H000000000000<H,(%)7A800*7*%%%%%%",
"$$%%%%(+100[[+)%(%*B(0000000000,J5)%%%)7A.30:,%%%%%%",
"$%%%%%*=00'I5*(%%%%+H600000000G>;*(%%%%*5B00'B)%%%%$",
"$%%%%%+000<H,($%%(%%5;00000000[C+)%%%%%%,H103:,(%%%$",
"$%%%%))00#I5)%%%%$%%*:60300006[B*($%%%%%)7)00B+)%%%$",
"$%%%(*=00>H,(%%%%%%%(+C000300DA+%%%$%$%%%+;00=:*%%%$",
"$%%%(,K30[;*%$%%%$(%%,B83000%I5)%%%%%%%%%*;30KH+(%%$",
"%%%%(7106J7(%($%$%%$%%+A0003>H*%($$%%%$%()5F00C+(%%$",
"$%%%)B00-A7%%(%%%%%%%()5(00)J5(%%%%%%%%$%(+L00C5(%%$",
"$%$%*5008A,(((%(%%(%%()+AF.<;,)(((((((((((+#00EB(%%$",
"$%%%*+00$A5+,**,,,,,,,,7::JC;+,,,,,,,,,*,75&30A;)%%$",
"$%%%*70000030033000000000KM0000000000001000000H;)%%$",
"$%%%*;0000000000000000000J[1000000000000000000C;)%%$",
"$%%%*;000000000000000000,[A,000000000000000000>;)%%%",
"$%%%)B303000000000000003<A:A300000000000000003IB(%%%",
"$%%$)560003000000000000:E7,770000000000000000GC5%%%%",
"%%%%(+'3000000000000001<;*(*H60000000000000008E+(%%$",
"%%%$%+7000000000300000>E,(((7A300000000000000H:,%%%$",
"$%%%%):.0000003000000GI5*($();230000000030000I5)%%%$",
"%$%%(%7%0000000000000IH+)&%%(+A0000000000030)E7(%%%$",
"%%%$%%,H3030000000005I7)$%($%)B+00000000000.<:)%%%%$",
"%$%%%()5B00000000003N:,(%($%(%+AF0000000000;C7(%%%%$",
"$%%%%%%*BM300000010HE7(%%&%%$%)75000000000GI;*(%%%%$",
"$($%%%()+A.00000001>;,%%(%%%%%%*HG00000001NA+(%%%%$$",
"$%%$%($%)5E1000000NE*)%%%%%%%%%(,A0000003IC7)$%%%%$%",
"$($%%%%%(*;;10000(I;*%%$%%%%%%$%,B)00000CJ;*(($%$(%%",
"$$%%$%%$%(,;AF000'H;))(%%%%%%%((,;*0001<[B)(%$%%%$$&",
"'%(%%%$%%$(+;J=0000L7,,*)))))*,)-3000GNCB*%%%%%%%%%8",
" (&%%%(%%%(%*;E;M00003.6-4=L6.300000CIE7*((%%%%%$$( ",
" &(%%$%%$%%%%)7:[,300000000000000.*NJ:7)(%$(&%%$(%$ ",
"  (%$%%%%$$(%((+5AJH%L.0000001G(C>JA7*(($%%$(%%%%%  ",
"  8(%%%%%%%%%$%%),5:EJ><JC>DN>>JA:7*)%(%%%%%%$%%%&  ",
"   %$(%%%%%%%%%%%()*+5;HAAAAH:;5+*)(%%%%($%%%%%%%   ",
"    %%%%%%%%%%%%%%%%(()**,,,*)))(%%%%%%%$%%%$%%$    ",
"     8%%$(%$%%%%%%%%%%%%%(((%%%%%%%%%%%%$(%&%%&     ",
"       (&%%$(%%%%%%%%%%%%%%%%%%%%%%%%%%$($%%$       ",
"         #%$%$%$$$$$$$$%$$$$$%%%$$$$$$$%&$8         "};
