/* XPM */ 
static const char * hourglass_xpm[] = {
"52 52 40 1",
" 	c None",
"!	c black",
"#	c #C6C7C6",
"$	c #B5B6B5",
"%	c #B5B2B5",
"&	c #BDBABD",
"'	c #C6C3C6",
"(	c #ADAEAD",
")	c #ADAAAD",
"*	c #A5A6A5",
"+	c #A5A2A5",
",	c #9C9E9C",
"-	c #9C9A9C",
".	c #BDBEBD",
"0	c white",
"1	c #FFFBFF",
"2	c #949294",
"3	c #8C8E8C",
"4	c #949694",
"5	c #CECFCE",
"6	c #737573",
"7	c #848284",
"8	c #6B6D6B",
"9	c #525552",
":	c #6B696B",
";	c #8C8A8C",
"<	c #848684",
"=	c #7B797B",
">	c #737173",
"?	c #F7F3F7",
"@	c #EFEFEF",
"A	c #7B7D7B",
"B	c #F7F7F7",
"C	c #5A5D5A",
"D	c #CECBCE",
"E	c #5A595A",
"F	c #EFEBEF",
"G	c #E7E7E7",
"H	c #636163",
"I	c #636563",
"         #$$$$%$$$$$$%%$$$$$$$$%%$$$$$$$&$'         ",
"       %$(%$%%%%%%%%%%%%%%%%%%%%%%%%%%%%($%%%       ",
"     &%%$%%%%%%%%%%%%%%%%%%%%%%%%%%%%%%%$((&((&     ",
"    $$%%%%%$$$%%%%%%%%%%%%%%%%%%%%%%%%%%%%$(%%$%    ",
"   $%)$%%%%%(%%%%%%%%%%%%%%%%%%%%%%%%%%%%%%%$%(%%   ",
"  &%%$%$%%%%$%%%%(((%((%%%%%%%%(((((%%%%%%(%%%%%%&  ",
"  %%$($%%%%%%%()*+,,,,-,,,,,,,,,,,,+*(%%$%$%%$($%%  ",
" %%%%%%%%$(%%%).00000000000000000001$+)%%%%%%%%%%%% ",
" $%$%%%$%%%$%*)0000010000000000010001-+(%%%%%%%%%$& ",
"#%(%%%%%%%%(()#0100100000000000000000&2((%%%%%%%%%(#",
"$%%%%%%%%%%%%*)000000100000000000000034)(%%%%%%%%%%$",
"$%$%%%%%%%%$%*3510000000000000000000.6-(%%%%%%%%%$%$",
"$(%%%%%%%%%%(%+780010000000000000009:;,(%%%%%%%%%%($",
"$%%%%%%%%%%%%%)4<000000000000000000:=,(%%%%%%%%%%%%$",
"%%%%%%%%$%%%$%%+;000000000000000000:3+%%%%%%%%%%%%%%",
"%%%%%%%%%%%%%%%*200000000000000000083*%%%%%%%%%%%%%$",
"%%%%%%%%%%%%%%%*200000000000000000082)%%%%%%%%%%%%%$",
"%%%%%%%%%%%%%%%*200000000000000010083)%%%%%%%%%%%%%$",
"%%%%%%%%%%%%%%%*200000000000000000083)%%%%%%%%%%%%%$",
"%%%%%%%%%%%%%%%*2000000000000000000>4(%%%%%%%%%%%%%$",
"%%%%%%%%%%%%%%%)4?0000000000000000@6-(%%%%%%%%%%%%%$",
"%%%%%%%%%%%%%%%(,.0000000000000000%7,(%%%%%%%%%%%%%$",
"%%%%%%%%%%%%%%%(*<0000000000000001:2*%%%%%%%%%%%%%%$",
"%%%%%%%%%%%%%%%%)4AB0000000000001CA,)$%%%%%%%%%%%%%$",
"%%%%%%%%%%%%%%%%()270000000010008=-*$$(%%%%%%%%%%%%$",
"%%%%%%%%%%%%%%%$%(+3>D00001000'E62*(%($%%%%%%%%%%%%$",
"%%%%%%%%%%%%%%%%$(%+<500000000#83*)$%%%%%%%%%%%%%%%$",
"%%%%%%%%%%%%%%%%(%**0000000000004-(%(%$%%%%%%%%%%%%$",
"%%%%%%%%%%%%%%%%%(+0000000000000B3+)$$(%%%%%%%%%%%%$",
"%%%%%%%%%%%%%%%%(+10010010000001013*(%%%%%%%%%%%%%%$",
"%%%%%%%%%%%%%%%%)D0000000010000000.-)%%%%%%%%%%%%%%$",
"%%%%%%%%%%%%%%%%+B0000000000000000B;*%%%%%%%%%%%%%%$",
"%%%%%%%%%%%%%%%(,100000000000000001<,(%%%%%%%%%%%%%$",
"%%%%%%%%%%%%%%%)4000000000000000000=4)%%%%%%%%%%%%%$",
"%%%%%%%%%%%%%%%*200000000000000000062)%%%%%%%%%%%%%$",
"%%%%%%%%%%%%%%%*2000000000000000000>3)%%%%%%%%%%%%%$",
"%%%%%%%%%%%%%%%*300000000000000000083)%%%%%%%%%%%%%$",
"%%%%%%%%%%%%%%%*200000000000000000083)%%%%%%%%%%%%%$",
"%%%%%%%%%%%%%%%+200000000000000000083)%%%%%%%%%%%%%$",
"$%%$%($%$(%$%%(-%000010000000000000-<+%%%%%%%%%%%%$%",
"$($%%%%%%$%%$(*F00000000000000000000G2)%%%%%%%%%$(%%",
"$$%%$%%%%$($%).0000001000000000000000(-(%%%%%%%%%$$&",
"'%(%%%$%%%($(*'0000000000000000000000%2((%%%%%%%%%%.",
" (&%%%(%($$%%*-100000000000000000000164((%%%%%%%$$( ",
" &(%%$%%%%%%$)2;@BB1?B1BBBBBBBBB1BBF6<-(%%%%%%%$(%$ ",
"  (%$%%%$%%$$()2=:8H:IHIIIIIIII:II:>A4*%%%%%%%%%%%  ",
"  .(%%%$(%$%%%(*,432323333333333323-,)%%%%%%%%%%%&  ",
"   %$(%%%%%%%%%(())***************))(%%%($%%%%%%%   ",
"    %%%%%%%%%%%%%%%%%%%%%%%%%%%%%%%%%%%%$%%%$%%$    ",
"     .%%$(%$%%%%%%%%%%%%%%%%%%%%%%%%%%%%$(%&%%&     ",
"       (&%%$(%%%%%%%%%%%%%%%%%%%%%%%%%%$($%%$       ",
"         #%$%$%$$$$$$$$$$$$$$$$$$$$$$$$%&$.         "};