/* XPM */ 
static const char * info_xpm[] = {
"52 52 37 1",
" 	c None",
"!	c black",
"#	c #C6C7C6",
"$	c #B5B6B5",
"%	c #B5B2B5",
"&	c #BDBABD",
"'	c #C6C3C6",
"(	c #ADAEAD",
")	c #ADAAAD",
"*	c #A5A2A5",
"+	c #9C9E9C",
",	c #9C9A9C",
"-	c #A5A6A5",
".	c #F7F7F7",
"0	c white",
"1	c #FFFBFF",
"2	c #949294",
"3	c #848284",
"4	c #949694",
"5	c #848684",
"6	c #6B696B",
"7	c #8C8A8C",
"8	c #CECFCE",
"9	c #F7F3F7",
":	c #6B6D6B",
";	c #737573",
"<	c #737173",
"=	c #8C8E8C",
">	c #CECBCE",
"?	c #DEDFDE",
"@	c #EFEBEF",
"A	c #E7E7E7",
"B	c #E7E3E7",
"C	c #EFEFEF",
"D	c #BDBEBD",
"E	c #7B7D7B",
"F	c #7B797B",
"         #$$%$%$$$$$$$$$$$$$$$$$$$$$$$$$&$'         ",
"       %$(%$%$%%%%%%%%%%%%%%%%%%%%%%%%%%($%%%       ",
"     &%%$%%%%%%%%%%%%%%%%%%%%%%%%%%%%%%%$((&((&     ",
"    $$%%%%%$$$%%%%%%%%%%%%%%%%%%%%%%%%%%%%$(%%$%    ",
"   $%)$%$%%%((%%%%%%%%%%%%%%%%%%%%%%%%%%%%%%$%(%%   ",
"  &%%$%%%%%%$%%%%%%%%%%%%%%%%%$%%%%%%%%%%%(%%%%%%&  ",
"  %%$($%%%%%%%%%%%%%%%%%%(((%%%%%%%%%%%%$%$%%$($%%  ",
" %%%%%%%%%%%%%%$%%%%%$%%*++,-((%%%%%%%$%%%%%%%%%%%% ",
" $%$%%%%%%%%%%%%%%%%%%)-.010&,(($%%%%%%%%%%%%%%%%$& ",
"#%(%%%%%%%%%%%%%%%%%%(*000000',(%%%%%%%%%%%%%%%%%%(#",
"$%%%%%%%%%%%%%%%%%%$%)*010000.2-%%%%%$%%%%%%%%%%%%%$",
"$%$%%%%%%%%%%%%%%%%%()*00000013*(%%%%$%%%%%%%%%%%$%$",
"$(%%%%%%%%%%%%%%$%%%%)4000000.5*(%%%%%%%%%%%%%%%%%($",
"$%%%%%%%%%%%%%%%%%%$$)2#0000067-%%%%%%%%%%%%%%%%%%%$",
"%%%%%%%%%%%%%%%%$%%%%(*78119:;,)%%%%%%%%%%%%%%%%%%%%",
"%%%%%%%%%%%%%%%%%($%%%)*5;:<32-%%%%%%%%%%%%%%%%%%%%$",
"%%%%%%%%%%%%%%%%$%($%%(--,=2*-%%%%%%%%%%%%%%%%%%%%%$",
"%%%%%%%%%%%%%%%%($$$(%%%%(((((%%%%%%%%%%%%%%%%%%%%%$",
"%%%%%%%%%%%%%%%%$%(%%%%%%%%(%$%%%%%%%%%%%%%%%%%%%%%$",
"%%%%%%%%%%%%%%%%%%$$(%%((()*-*(%%%%%%%%%%%%%%%%%%%%$",
"%%%%%%%%%%%%%%%%%%(%()--,#000>*(%%%%%%%%%%%%%%%%%%%$",
"%%%%%%%%%%%%%%%%$%((()?000000$+)%%%%%%%%%%%%%%%%%%%$",
"%%%%%%%%%%%%%%%%($%-000000000%=)%%%%%%%%%%%%%%%%%%%$",
"%%%%%%%%%%%%%%%%%%%-@ABA00000)=-%%%%%%%%%%%%%%%%%%%$",
"%%%%%%%%%%%%%%%$(%$++5:700000)=-%%%%%%%%%%%%%%%%%%%$",
"%%%%%%%%%%%%%%%$%%%(*+7201000(7-%%%%%%%%%%%%%%%%%%%$",
"%%%%%%%%%%%%%%%%$%%%%%+)00000(7-%%%%%%%%%%%%%%%%%%%$",
"%%%%%%%%%%%%%%%%$%%(%(--00000)=-%%%%%%%%%%%%%%%%%%%$",
"%%%%%%%%%%%%%%%%%$%$$(*)00000)=-%%%%%%%%%%%%%%%%%%%$",
"%%%%%%%%%%%%%%%%%$(%%%**00000(7-%%%%%%%%%%%%%%%%%%%$",
"%%%%%%%%%%%%%%%%%($%%%*)00000-=-%%%%%%%%%%%%%%%%%%%$",
"%%%%%%%%%%%%%%%%%%%%%%*-00000(=-%%%%%%%%%%%%%%%%%%%$",
"%%%%%%%%%%%%%%%%%%%%%%*-00000(=-%%%%%%%%%%%%%%%%%%%$",
"%%%%%%%%%%%%%%%%%%%%%%*-00000(=-%%%%%%%%%%%%%%%%%%%$",
"%%%%%%%%%%%%%%%%%%%%%%*-00000(=-%%%%%%%%%%%%%%%%%%%$",
"%%%%%%%%%%%%%%%%%%%%%%*-00000(=-%%%%%%%%%%%%%%%%%%%$",
"%%%%%%%%%%%%%%%%%%%%%%*-00000(=-%%%%%%%%%%%%%%%%%%%$",
"%%%%%%%%%%%%%%%%%%%%%%*-00000(=-%%%%%%%%%%%%%%%%%%%$",
"%%%%%%%%%%%%%%%%%%%%%%*-00000(=-%%%%%%%%%%%%%%%%%%%$",
"$%%$%($%%%%%%%%%%%%%%(*-00000)=-%%%%%%%%%%%%%%%%%%$%",
"$($%%%%%%%%%%%%%%%$(((,-00100(5+)%%%%%%%%%%%%%%%$(%%",
"$$%%$%%%%%%%%%%%%%%(#C@@00000CA@#-)$%%%%%%%%%%%%%$$&",
"'%(%%%$%%%%%%%%%%%((>00000000000#+-$%%%%%%%%%%%%%%%D",
" (&%%%(%%%%%%%%(%$$)*+=33EE33372=4($%%(%%%%%%%%%$$( ",
" &(%%$%%%%%%%%%$$%()+=3EEFEFF;E32-((%$%%%%%%%%%$(%$ ",
"  (%$%%%%%%%%%%%%%%%(**,,++,+*,+-)($%%%%%%%%%%%%%%  ",
"  D(%%%%%%%%%%%$($%(%%%((((%((((%(%%%%$%%%%%%%%%%&  ",
"   %$(%%%%%%%%%%%%%%%%%%%%%%%%%%%%%%%%%%($%%%%%%%   ",
"    %%%%%%%%%%%%%%%%%%%%%%%%%%%%%%%%%%%%$%%%$%%$    ",
"     D%%$(%$%%%%%%%%%%%%%%%%%%%%%%%%%%%%$(%&%%&     ",
"       (&%%$(%%%%%%%%%%%%%%%%%%%%%%%%%%$($%%$       ",
"         #%$%$%$$$$$$$$$$$$$$$$$$$$$$$$%&$D         "};