/* XPM */ 
static const char * ipod_xpm[] = {
"52 52 44 1",
" 	c None",
"!	c black",
"#	c #C6C3C6",
"$	c #B5B2B5",
"%	c #BDBABD",
"&	c #B5B6B5",
"'	c #ADAEAD",
"(	c #ADAAAD",
")	c #A5A6A5",
"*	c #A5A2A5",
"+	c #CECBCE",
",	c #F7F3F7",
"-	c #EFEFEF",
".	c #F7F7F7",
"0	c #E7E7E7",
"1	c #9C9E9C",
"2	c #DEDFDE",
"3	c white",
"4	c #DEDBDE",
"5	c #949694",
"6	c #FFFBFF",
"7	c #EFEBEF",
"8	c #E7E3E7",
"9	c #525152",
":	c #5A5D5A",
";	c #6B696B",
"<	c #6B6D6B",
"=	c #737173",
">	c #636563",
"?	c #636163",
"@	c #8C8E8C",
"A	c #7B7D7B",
"B	c #848684",
"C	c #8C8A8C",
"D	c #848284",
"E	c #C6C7C6",
"F	c #9C9A9C",
"G	c #949294",
"H	c #BDBEBD",
"I	c #737573",
"J	c #7B797B",
"K	c #CECFCE",
"L	c #D6D3D6",
"M	c #D6D7D6",
"         #$%&$&&&&&&$$$&&&&&&&&$&$&&$&&&&%#         ",
"       $&$&'$&'$$$$$$$$$$$$$$$$$$$$$$$$&'$$$'       ",
"     %$&$$'$&$&$$$$$$$$$$$$$$$$$$$$$$$'&&&$$$&&     ",
"    &&$$$$&$''((()))))))))))))))**()*('''$$$&$$$    ",
"   &$(&$$'&')+,---,-------------.,--.0#1($$$'$$$$   ",
"  %$$&$$&$((23333333333333333333333333345)$$&$&$$%  ",
"  $$&'&$$$(%363782222222222222282222-333'1($&'$&$$  ",
" $$$$$$$$$*.339:;<<==<<<<<<<<<<=<<<<>?33.@)$$$$$$$$ ",
" &$&$$$$$'*637>AB@@BBCCCCCCCCCCD@BC@C=,3,B*$$$$$$&% ",
"E$'$$$$$&'F.3E=5)26366.666666666.6.11GE3,D1$$&$$$$'E",
"&$$$$$$$$'F.3%D1)033333333333333333@15H3,A1$$&$$$$$&",
"&$&$$$$$''F.3HB)*733333333333333333A11#3.A1$$$$$$&$&",
"&'$$$$$&'$5.3#A*1033333333333333333I5FE3.A1$$$$$$$'&",
"&$$$$$$$$'F63#D)*833333333333333333JFF#3.J1$$$$$$$$&",
"$$$$$$$$$'563%B**833333333333333333J5FE3.J1$$$$$$$$$",
"$$$$$$$$$'F.3HD**033333333333333333I51#3.A1$$$$$$$$&",
"$$$$$$$$$'F.3HD*1833336333333333363I11#3.A1$$$$$$$$&",
"$$$$$$$$$'F.3HD)1833333333333333333J55E3.A1$$$$$$$$&",
"$$$$$$$$$'F.3HD**863333333333333333IF1E3.A1$$$$$$$$&",
"$$$$$$$$$'F.3HD**733333333333333333J51E3.A1$$$$$$$$&",
"$$$$$$$$$'F.3HD)1836333333333333336J5FE3.A1$$$$$$$$&",
"$$$$$$$$$'F.3HD*(233333333333333333DFFE3.A1$$$$$$$$&",
"$$$$$$$$$'F.3HD*)5A;>>>>>>>>>>>>?;=G*F#3.A1$$$$$$$$&",
"$$$$$$$$$'F.3HD*'*5GC@CCBBDBBCCC@G5*(*#3.A1$$$$$$$$&",
"$$$$$$$$$'F.3HD)$''((F1(K77K*FF)))(''1#3.A1$$$$$$$$&",
"$$$$$$$$$'F.3HD)$$''*%33333333'F)$$&'1E3.A1$$$$$$$$&",
"$$$$$$$$$'F.3HD*$$'(6333333333361*($$*E3.A1$$$$$$$$&",
"$$$$$$$$$'F.3HD1$'1,363L>:?<L633-G*$(F#3.A1$$$$$$$$&",
"$$$$$$$$$'F.3HD)'F.338>;DBDCJ=233,@)&FE3.A1$$$$$$$$&",
"$$$$$$$$$'F.3HD*(H336:ICF1)*FC=333'F(1#3.A1$$$$$$$$&",
"$$$$$$$$$'F.3HD**,33>J5('$$$'(@A33,@*FE3.A1$$$$$$$$&",
"$$$$$$$$$'F.3HD11332;@)$$$$$$'*C833D1FE3.A1$$$$$$$$&",
"$$$$$$$$$'F.3HDFG331AF'$$$$$$$'5'33AGFE3.A1$$$$$$$$&",
"$$$$$$$$$'F.3HDFG33IB('&$$$$$$'*G33I@5E3.A1$$$$$$$$&",
"$$$$$$$$$'F.3HDFG33@G*'$$$$$$$$)(33=@5#3.A1$$$$$$$$&",
"$$$$$$$$$'F.3HD5G33KD)$$$$$'$$$1M33=CF#3.A1$$$$$$$$&",
"$$$$$$$$$'F.3HDFG636A1'$&$$$&'(1633=GF#3.A1$$$$$$$$&",
"$$$$$$$$$'F.3HD15L36#@($$$$&$()+33EJ1FE3.A1$$$$$$$$&",
"$$$$$$$$$'F.3HD1*@333*5('$$$(($333I@1*#3.A1$$$$$$$$&",
"&$$&$'&&$'5.3#D1'GG33301F))1)7333AIF'FE3.A1'$$$$$$&$",
"&'&$$$$'&'F63HD)()C'3333-E#,3333)=@)(1E3.J1&$&$$&'$$",
"&&$$&$$$$'F,3#D*$(*DD-333333337==C*$$1E3.DF'$&$$$&&%",
"#$'$$$&&'$F33HD*$$(*C=F-6363-F?J@)$''1E3,J1$$$&$$$$H",
" '%$$$''&(F.3,A1$$'')5CJ=>>;<J@F*($'$5,3.A*'$$$$&&' ",
" %'$$&$&$$1,33<G1)(**15GDBAA@G51)))(1@33,AF&'$$&'$& ",
"  '$&$$$$$1'333-02228222442442284222,3335@)'&$'$$$  ",
"  H'$$$$&$)@K33363333333333333333333333E=G)&'&$$$%  ",
"   $&'$$$$'FB'8-----------------,---,2)<B*'&$&$$$   ",
"    $$$$$$$'FCA===<<<<<<<<<<<<<<<<=<<JJ@*($$$$$&    ",
"     H$$&$$'')15GGGGGGGGGGGGGGGGG@G5G5*)''$&$$%     ",
"       $$'&&$''''((((''''''''''(''(('('&(&$'&       ",
"         E&$&&&$$$&&&&$&&&&&&&&&$&&$&&%$&&#         "};