/* XPM */ 
static const char * person_xpm[] = {
"52 52 39 1",
" 	c None",
"!	c black",
"#	c #C6C7C6",
"$	c #B5B6B5",
"%	c #B5B2B5",
"&	c #BDBABD",
"'	c #C6C3C6",
"(	c #ADAEAD",
")	c #ADAAAD",
"*	c #A5A2A5",
"+	c #9C9A9C",
",	c #949694",
"-	c #9C9E9C",
".	c #A5A6A5",
"0	c #EFEBEF",
"1	c white",
"2	c #DEDBDE",
"3	c #949294",
"4	c #FFFBFF",
"5	c #8C8E8C",
"6	c #CECFCE",
"7	c #848684",
"8	c #7B7D7B",
"9	c #CECBCE",
":	c #7B797B",
";	c #DEDFDE",
"<	c #6B6D6B",
"=	c #737173",
">	c #8C8A8C",
"?	c #BDBEBD",
"@	c #6B696B",
"A	c #848284",
"B	c #636563",
"C	c #F7F3F7",
"D	c #5A5D5A",
"E	c #F7F7F7",
"F	c #737573",
"G	c #E7E7E7",
"H	c #E7E3E7",
"         #$$%$%$%%$$$%%%$$%%%$$$%%$$%$$$&$'         ",
"       %$(%$%$%%%$%%%$%%%(%$%%%%%%%%%%%%($%%%       ",
"     &%%$%%%%%%%%%%%$%(%%%$$%(%%%%%%%%%%$((&((&     ",
"    $$%%%%%$$$%%((%%%%$%$%(%%$%%%%%%$%%%%%$(%%$%    ",
"   $%)$%$%%%((%%$$%$%%((((%(((%%%%%%%%%%%%%%$%(%%   ",
"  &%%$%%%%%%$%%($%(%())*+++,-))(%%%%%%%%%%(%%%%%%&  ",
"  %%$($%%%%%%%%%$%%(.&01111112**)(%%%%%%$%$%%$($%%  ",
" %%%%%%%%%%%%%%%(%))111111111112+*(%%(%%%%%%%%%%%%% ",
" $%$%%%%%%%%%%%%$.)111111111111103.(%%$%%%%%%%%%%$& ",
"#%(%%%%%%%%%%%%%)&11111111111111145*%%%%%%%%%%%%%%(#",
"$%%%%%%%%%%%%%%)*414111111111111116+.$%%%%%%%%%%%%%$",
"$%$%%%%%%%%%%%%)#1111411111111111117-(%%%%%%%%%%%$%$",
"$(%%%%%%%%%%%%(+1111111111111111111%,.(%%%%%%%%%%%($",
"$%%%%%%%%%%%%%)(411111111111111111148.%%%%%%%%%%%%%$",
"%%%%%%%%%%%%%()911111111111111111111:-%%%%%%%%%%%%%%",
"%%%%%%%%%%%%%(*;11111111111111111111<-)%%%%%%%%%%%%$",
"%%%%%%%%%%%%%(*;11111111111111111141<,(%%%%%%%%%%%%$",
"%%%%%%%%%%%%%(*#11141111111111111111<+)%%%%%%%%%%%%$",
"%%%%%%%%%%%%%(.*11111111111111111111=-)%%%%%%%%%%%%$",
"%%%%%%%%%%%%%%)>1411111111111111114$8-%%%%%%%%%%%%%$",
"%%%%%%%%%%%%%%),?111114111111111111@>.%%%%%%%%%%%%%$",
"%%%%%%%%%%%%%%(-A111111111111111112=,)%%%%%%%%%%%%%$",
"%%%%%%%%%%%%%$%)-+1111111111111114B>*(%%%%%%%%%%%%%$",
"%%%%%%%%$%(%%%$(.>.1111111111111CD8+)$%%$%%$(%%%%%%$",
"%%%%%%%%%%%$%%%$)->>E11111111116B8,)%%%%$%%($%%%%%%$",
"%%%%%%%%%%$(%$$%%)->F%E114111C8B8,))$$%%%%%$%%%%%%%$",
"%%%%%%%$%%%%%%(%%%(-37=<@=BBB@:5+))$)((%($$($%%%%%%$",
"%%%%%%%($(%((.*--*-*,5A:=<<<=A5,+---**..))%%(%$%%%%$",
"%%%%%%%$((*?01111114111111111141411411EG$*.(%$(%%%%$",
"%%%%%%%%).41111111111111111144111111111144,*)%%%%%%$",
"%%%%%%%))1111111111111111141111111111111111--)%%%%%$",
"$%%%%%(-111111111111111111111111111111111111>.(%%%%$",
"%%%%$%.H111111111111111111111111111111111111;3(%%%%$",
"%%%%$(-11111111111111111111111111111111111111A*(%%%$",
"%%%%%)(11111111111111111111111111111111141111++)%%%$",
"$%%%%.'11111111111111111111111111111111111111$3)%%%$",
"$%%$%*#11111111111111111111111111111111111111%>.%%%$",
"$%%$%-#11114111111111111111111111111111111111%5*%%%$",
"%%%%%*#11111141111111111111111111111111111111$>*%%%$",
"$$%%%*#11111111111111111111111111111111111111%>*%$%$",
"$%&%%*#11111111111111111111111111111111111111%5.%(($",
"$$(%%*'11111111111111111111111111111111411111$7.%$$&",
"'($$(*911111111111111111111111111111111111111&>.%(%?",
" ($(%)-3788A88AAAAAAAAAAAAAAAAAAAAAAAAA88AAA>>,.$$% ",
" $%$%)-5A:::::::::::::::::::::::::::::::F:::A5*(%($ ",
"  %%%((*---------------------------------*--*.)(%%  ",
"  &%%%%(%%(((%%((((((((((((((((((((((((%(((%(%%%%&  ",
"   %$%$%%%%%%%%%%%%%%%%%%%%%%%%%%%%%%%%%($%%%$%%%   ",
"    %%%%%%%%%%%%%%%%%%%%%%%%%%%%%%%%%%%%$(%%(%%%    ",
"     ?%%$(%$%%%%%%%%%%%%%%%%%%%%%%%%%%%%%%%$%(?     ",
"       (&%%$(%%%%%%%%%%%%%%%%%%%%%%%%%%%%%%%%       ",
"         #%$%$%$$$$$$$$$$$$$$$$$$$$$$$$%$$'         "};