/* XPM */ 
static const char * sound_xpm[] = {
"52 52 34 1",
" 	c None",
"!	c black",
"#	c #C6C7C6",
"$	c #B5B6B5",
"%	c #B5B2B5",
"&	c #BDBABD",
"'	c #C6C3C6",
"(	c #ADAEAD",
")	c #ADAAAD",
"*	c #A5A6A5",
"+	c #FFFBFF",
",	c #9C9A9C",
"-	c #A5A2A5",
".	c white",
"0	c #848284",
"1	c #949694",
"2	c #F7F3F7",
"3	c #7B797B",
"4	c #8C8E8C",
"5	c #6B6D6B",
"6	c #F7F7F7",
"7	c #737573",
"8	c #8C8A8C",
"9	c #6B696B",
":	c #737173",
";	c #9C9E9C",
"<	c #DEDBDE",
"=	c #DEDFDE",
">	c #D6D7D6",
"?	c #D6D3D6",
"@	c #848684",
"A	c #949294",
"B	c #7B7D7B",
"C	c #BDBEBD",
"         #$$%$%$$$$$$$$$$$$$$$$$$$$$$$$$&$'         ",
"       %$(%$%$%%%%%%%%%%%%%%%%%%%%%%%%%%($%%%       ",
"     &%%$%%%%%%%%%%%%%%%%%%%%%%%%%%%%%%%$((&((&     ",
"    $$%%%%%$$$%%%%%%%%%%%%%%%%%%%%%%%%%%%%$(%%$%    ",
"   $%)$%$%%%((%%%%%%%%%%%%%%%%%%%%%%%%%%%%%%$%(%%   ",
"  &%%$%%%%%%$%%%%%%%%%%%%%%%%%%$%%%%%%$%%%(%%%%%%&  ",
"  %%$($%%%%%%%%%%%%%%%%%%%%%%%%%%%((%%%%$%$%%$($%%  ",
" %%%%%%%%%%%%%%%%%%%%%%%%%%$%(%%%)())%%%%%%%%%%%%%% ",
" $%$%%%%%%%%%%%%%%%%%%%%%%%%%%%%**+,-*%%%%%%%%%%%$& ",
"#%(%%%%%%%%%%%%%%%%%%%%%%%%%%$()(..01)$%%%%%%%%%%%(#",
"$%%%%%%%%%%%%%%%%%%%%%%$%%$%$))*2..34((%%%%%%%%%%%%$",
"$%$%%%%%%%%%%%%%%%%%%%%%$$(%()$....54*%%%%%%%%%%%$%$",
"$(%%%%%%%%%%%%%%%%%%%%%%%(%%))6....78)%%%%%%%%%%%%($",
"$%%%%%%%%%%%%%%%%%%%%%%%%$()$......94)%%%%%%%%%%%%%$",
"%%%%%%%%%%%%%%%%%%%%%%%$%()*+......:8)%%%%%%%%%%%%%%",
"%%%%%%%%%%%($(%%%%%%%%%%%*%........54)%%%%%%%%%%%%%$",
"%%%%%%%%%%$(*(----------;-.........54)%%%%%%%%%%%%%$",
"%%%%%%%%$%%((+............+........54)%%%%%%%%%%%%%$",
"%%%%%%%(%%%)-......................54)%%%%%%%%%%%%%$",
"%%%%%%%$%%%*,.+....................54)%%%%%%%%%%%%%$",
"%%%%%%%(($%-1................+.....54)%%%%%%%%%%%%%$",
"%%%%%%%$$%%*,......................54)%%%%%%%%%%%%%$",
"%%%%%%%%$(%*,......................54)%%%%%%%%%%%%%$",
"%%%%%%%%%%%-,......................54)%%%%%%%%%%%%%$",
"%%%%%%%%%%%-,......................54)%%%%%%%%%%%%%$",
"%%%%%%%%%%%-,......................54)%%%%%%%%%%%%%$",
"%%%%%%%%%%%-,......................54)%%%%%%%%%%%%%$",
"%%%%%%%%%%%-,......................54)%%%%%%%%%%%%%$",
"%%%%%%%%%%%-,......................54)%%%%%%%%%%%%%$",
"%%%%%%%%%%%-,......................54)%%%%%%%%%%%%%$",
"%%%%%%%%%%%-,......................54)%%%%%%%%%%%%%$",
"%%%%%%%%$%%-,......................54)%%%%%%%%%%%%%$",
"%%%%%%%%(%%-,......................54)%%%%%%%%%%%%%$",
"%%%%%%%%%$%-1................+.....54)%%%%%%%%%%%%%$",
"%%%%%%%$%%(-,......................54)%%%%%%%%%%%%%$",
"%%%%%%%(%%%*,...........+.....+....54)%%%%%%%%%%%%%$",
"%%%%%%%%$%(*;<=>>>>>>>>>??.........54)%%%%%%%%%%%%%$",
"%%%%%%%%%%$(,437777777777:@........54)%%%%%%%%%%%%%$",
"%%%%%%%%%%%((;;,,,,,,,,,1AB4.......54)%%%%%%%%%%%%%$",
"$%%$%($%%%%%%%%((((((((%();88......:A*$%%%%%%%%%%%$%",
"$($%%%%%%%%%%%%%%%%%%%%%%%)-@8.....5@)%%%%%%%%%%$(%%",
"$$%%$%%%%%%%%%%%%%%%%%%%%%%);81....:A*$%%%%%%%%%%$$&",
"'%(%%%$%%%%%%%%%%%%%%%%%%%%$*;00.+.58)%%%%%%%%%%%%%C",
" (&%%%(%%%%%%%%%%%%%%%%%%%%%%(;48.+74)(%%%%%%%%%$$( ",
" &(%%$%%%%%%%%%%%%%%%%%($%$$(((,@8.7A*$%%%%%%%%$(%$ ",
"  (%$%%%%%%%%%%%%%%%%%%$($)%$$((;8181(%%%%%%%%%%%%  ",
"  C(%%%%%%%%%%%%%%%%%%%%%%%%%%%%)-11-(%%%%%%%%%%%&  ",
"   %$(%%%%%%%%%%%%%%%%%%%%%%%%%$%()))%%%($%%%%%%%   ",
"    %%%%%%%%%%%%%%%%%%%%%%%%%%%%%%(((%%%$%%%$%%$    ",
"     C%%$(%$%%%%%%%%%%%%%%%%%%%%%%$%%%%%$(%&%%&     ",
"       (&%%$(%%%%%%%%%%%%%%%%%%%%%%%%%%$($%%$       ",
"         #%$%$%$$$$$$$$$$$$$$$$$$$%%$$$%&$C         "};