/* XPM */ 
static const char * x_xpm[] = {
"52 52 38 1",
" 	c None",
"!	c black",
"#	c #C6C7C6",
"$	c #B5B6B5",
"%	c #B5B2B5",
"&	c #BDBABD",
"'	c #C6C3C6",
"(	c #ADAEAD",
")	c #ADAAAD",
"*	c #A5A6A5",
"+	c #F7F3F7",
",	c #A5A2A5",
"-	c #E7E7E7",
".	c #CECFCE",
"0	c #9C9A9C",
"1	c #BDBEBD",
"2	c white",
"3	c #949294",
"4	c #9C9E9C",
"5	c #EFEBEF",
"6	c #FFFBFF",
"7	c #EFEFEF",
"8	c #949694",
"9	c #F7F7F7",
":	c #848284",
";	c #737173",
"<	c #8C8E8C",
"=	c #8C8A8C",
">	c #6B6D6B",
"?	c #848684",
"@	c #6B696B",
"A	c #7B797B",
"B	c #E7E3E7",
"C	c #7B7D7B",
"D	c #5A5D5A",
"E	c #636563",
"F	c #737573",
"G	c #636163",
"         #$$%$%$$$$$$$$$$$$$$$$$$$$$$$$$&$'         ",
"       %$(%$%$%%%%%%%%%%%%%%%%%%%%%%%%%%($%%%       ",
"     &%%$%%%%%%%%%%%%%%%%%%%%%%%%%%%%%%%$((&((&     ",
"    $$%%%%%$$$%%%%%%%%%%%%%%%%%%%%$$%%%%%%$(%%$%    ",
"   $%)$%$%%%((%%%%%%%%%%%%%%%%%%%%%%%%%%%%%%$%(%%   ",
"  &%%$%%%%%%$%%%%%%%$$$%%%%%%%%$%%%%%%$%%%(%%%%%%&  ",
"  %%$($%%%%%%%%%((((%%%%%%%%%%%%%(()((%%$%$%%$($%%  ",
" %%%%%%$($$%$%()*+,*)%%($%%%%%$%(,-.0)%%%%%%%$%%%%% ",
" $%$%%%(1(%%%%(*22+3))%$%$(%$%%(4522#0*(%%%%%(%%%$& ",
"#%(%%%%$(%%$()42622+3,)%($$$(%(*+2222'0)%%%$(%%%%%(#",
"$%%%%%%%$%%()*22262278*)%%%%%(*5222222#8)((%$%%%%%%$",
"$%$%%%%%%%$),62222222+3,(%%((*+2222222213*%%%%%%%$%$",
"$(%%%%%%%%*,2222222222784(((*-2222222222'0)(%%%%%%($",
"$%%%%%%%$)*222222222222+0,,*+222222222222'3)%%%%%%%$",
"%%%%%%%%),22222226222222730522222222222222#0)(%%%%%%",
"$%%%%%%(,2222222222222226996222222222222222'8*%%%%%%",
"$%%%%%(4222222222222222222222222222222226226#0*%%%%$",
"$%%%%(*22222222222222222222222222222222222222,*%%%%$",
"$%%%%(,*2222226222222222222222222222222262228:4%%%%$",
"$%%%%%*332222222222222222222222222222226222:;3(%%%%$",
"$%%%%%(,<<22222222222222222222222222222222=>=4(%%%%$",
"$%%%%%%)*?82222222222222222222222222222263@=,)%%%%%$",
"$%%%%%%%(,=322222222222222222222222222223>=,)%%%%%%$",
"%%%%%%%%$)4=322222222222222222222222222=@=,(%%%%%%%$",
"%%%%%%%%%%)4=02222222222222222222222228>=*)($%%%%%%$",
"%%%%%%%$(%$),:322222222222222222262223@=4)($%$%%%%%$",
"%%%%%%%%%%%%)4:6222222222222222222629>A4%%$$(%%%%%%$",
"%%%%%%%%%$(%(0922222222222222226222227=4)(%($($%%%%$",
"%%%%%%%$(%$),9222222222222222222222222+8,(%$%$(%%%%$",
"%%%%%%%(%%%462222222222222222222222222273,%(%%%%%%%$",
"%%%%%%%%$),62222222222222222222222222222904(%%%%%%%$",
"%%%%%%%%),9222222222222222222222222222222784($%%%%%$",
"$%%%%%%(,+22226222222222222222222222222222+00)%%%%%$",
"$%%%%%(49222222222222222222222222222222222278*(%%%%$",
"$%%%%(*222222622222222222222222222222222262270*%%%%$",
"$%%%%(,9222222222222222222226222222222222262'=*%%%%$",
"$%%%%(,=B2222222222222226262222222222222222(@<)%%%%$",
"$%%%%%)8C72222222222222260:226222222222222%>?4(%%%%$",
"$%%%%%(*8A72222222222222,D@<2222222222222$D?0)%%%%%$",
"$%%$%($%*8C5222222222223>?<?322222222222$E?4(%%%%%$%",
"$($%%%%%(*8F76222622220>=,)4?8222262222(G?4*%%%%$(%%",
"$$%%$%%%$%*3C722222220;=4)%)4=022222221>:4)$%%%%%$$&",
"'%(%%%$%%%()8F+222220@=4%%($),?<222621D?4)$(%%%%%%%1",
" (&%%%(%$%$))0AB222?>=,((%%%((,<<222$E:,)(%$%($%$$( ",
" &(%%$%(%$%%(*0A+28><,(%%$%%%%),=321E:4($%%%%&($(%$ ",
"  (%$%%$%%$%%(*3:4F<,)%%%%%$($(),<3A=0)%%%%(%%%%%%  ",
"  1(%%%%$%%$%%%*080,(%%%$%%%$($$(,00,(%($%%$%%%%%&  ",
"   %$(%%%%%%%%%%())(%%%%%%%%%%%%%())(%%%($%%%%%%%   ",
"    %%%%%%%%%%%%%((%%%%%%%%%%%%%%%%%%%%%$%%%$%%$    ",
"     1%%$(%$%%%%%%$%%%%%%%%%%%%%%%%%%%%%$(%&%%&     ",
"       (&%%$(%%%%%%%%%%%%%%%%%%%%%%%%%%$($%%$       ",
"         #%$%$%$$%%%$$$$$$$$$$$$$$$$$$$%&$1         "};